<?xml version="1.0" encoding="utf-8" standalone="no"?>
<!DOCTYPE svg PUBLIC "-//W3C//DTD SVG 1.1//EN"
  "http://www.w3.org/Graphics/SVG/1.1/DTD/svg11.dtd">
<svg xmlns:xlink="http://www.w3.org/1999/xlink" width="507.671406pt" height="228.504035pt" viewBox="0 0 507.671406 228.504035" xmlns="http://www.w3.org/2000/svg" version="1.1">
 <metadata>
  <rdf:RDF xmlns:dc="http://purl.org/dc/elements/1.1/" xmlns:cc="http://creativecommons.org/ns#" xmlns:rdf="http://www.w3.org/1999/02/22-rdf-syntax-ns#">
   <cc:Work>
    <dc:type rdf:resource="http://purl.org/dc/dcmitype/StillImage"/>
    <dc:date>2026-07-01T04:32:35.460878</dc:date>
    <dc:format>image/svg+xml</dc:format>
    <dc:creator>
     <cc:Agent>
      <dc:title>Matplotlib v3.10.8, https://matplotlib.org/</dc:title>
     </cc:Agent>
    </dc:creator>
   </cc:Work>
  </rdf:RDF>
 </metadata>
 <defs>
  <style type="text/css">*{stroke-linejoin: round; stroke-linecap: butt}</style>
 </defs>
 <g id="figure_1">
  <g id="patch_1">
   <path d="M 0 228.504035 
L 507.671406 228.504035 
L 507.671406 0 
L 0 0 
z
" style="fill: #ffffff"/>
  </g>
  <g id="axes_1">
   <g id="patch_2">
    <path d="M 45.211406 191.644035 
L 500.471406 191.644035 
L 500.471406 7.366351 
L 45.211406 7.366351 
z
" style="fill: #ffffff"/>
   </g>
   <g id="patch_3">
    <path d="M 45.211406 191.644035 
L 177.304366 191.644035 
L 177.304366 7.366351 
L 45.211406 7.366351 
z
" clip-path="url(#p4e062e66b1)" style="fill: #f4f4f4; stroke: #f4f4f4; stroke-linejoin: miter"/>
   </g>
   <g id="patch_4">
    <path d="M 346.476042 191.644035 
L 406.117008 191.644035 
L 406.117008 7.366351 
L 346.476042 7.366351 
z
" clip-path="url(#p4e062e66b1)" style="fill: #f4f4f4; stroke: #f4f4f4; stroke-linejoin: miter"/>
   </g>
   <g id="matplotlib.axis_1">
    <g id="xtick_1">
     <g id="line2d_1">
      <path d="M 207.994007 191.644035 
L 207.994007 7.366351 
" clip-path="url(#p4e062e66b1)" style="fill: none; stroke: #d0d0d0; stroke-opacity: 0.65; stroke-width: 0.55; stroke-linecap: square"/>
     </g>
     <g id="line2d_2">
      <defs>
       <path id="md372a18bd9" d="M 0 0 
L 0 3.5 
" style="stroke: #000000; stroke-width: 0.8"/>
      </defs>
      <g>
       <use xlink:href="#md372a18bd9" x="207.994007" y="191.644035" style="stroke: #000000; stroke-width: 0.8"/>
      </g>
     </g>
     <g id="text_1">
      <!-- $\mathdefault{10^{-1}}$ -->
      <g transform="translate(200.569007 206.37841)">
       <text>
        <tspan x="0" y="-0.747969" style="font-size: 7.5px; font-family: 'Arial'">1</tspan>
        <tspan x="4.171143" y="-0.747969" style="font-size: 7.5px; font-family: 'Arial'">0</tspan>
        <tspan x="8.472961" y="-5.975" style="font-size: 5.25px; font-family: 'Arial'">−</tspan>
        <tspan x="11.538879" y="-5.975" style="font-size: 5.25px; font-family: 'Arial'">1</tspan>
       </text>
      </g>
     </g>
    </g>
    <g id="xtick_2">
     <g id="line2d_3">
      <path d="M 406.117008 191.644035 
L 406.117008 7.366351 
" clip-path="url(#p4e062e66b1)" style="fill: none; stroke: #d0d0d0; stroke-opacity: 0.65; stroke-width: 0.55; stroke-linecap: square"/>
     </g>
     <g id="line2d_4">
      <g>
       <use xlink:href="#md372a18bd9" x="406.117008" y="191.644035" style="stroke: #000000; stroke-width: 0.8"/>
      </g>
     </g>
     <g id="text_2">
      <!-- $\mathdefault{10^{0}}$ -->
      <g transform="translate(400.229508 206.37841)">
       <text>
        <tspan x="0" y="-0.747969" style="font-size: 7.5px; font-family: 'Arial'">1</tspan>
        <tspan x="4.171143" y="-0.747969" style="font-size: 7.5px; font-family: 'Arial'">0</tspan>
        <tspan x="8.472961" y="-5.975" style="font-size: 5.25px; font-family: 'Arial'">0</tspan>
       </text>
      </g>
     </g>
    </g>
    <g id="xtick_3">
     <g id="line2d_5">
      <defs>
       <path id="m5ac35c60ca" d="M 0 0 
L 0 2 
" style="stroke: #000000; stroke-width: 0.6"/>
      </defs>
      <g>
       <use xlink:href="#m5ac35c60ca" x="69.511973" y="191.644035" style="stroke: #000000; stroke-width: 0.6"/>
      </g>
     </g>
    </g>
    <g id="xtick_4">
     <g id="line2d_6">
      <g>
       <use xlink:href="#m5ac35c60ca" x="104.399701" y="191.644035" style="stroke: #000000; stroke-width: 0.6"/>
      </g>
     </g>
    </g>
    <g id="xtick_5">
     <g id="line2d_7">
      <g>
       <use xlink:href="#m5ac35c60ca" x="129.152939" y="191.644035" style="stroke: #000000; stroke-width: 0.6"/>
      </g>
     </g>
    </g>
    <g id="xtick_6">
     <g id="line2d_8">
      <g>
       <use xlink:href="#m5ac35c60ca" x="148.353041" y="191.644035" style="stroke: #000000; stroke-width: 0.6"/>
      </g>
     </g>
    </g>
    <g id="xtick_7">
     <g id="line2d_9">
      <g>
       <use xlink:href="#m5ac35c60ca" x="164.040667" y="191.644035" style="stroke: #000000; stroke-width: 0.6"/>
      </g>
     </g>
    </g>
    <g id="xtick_8">
     <g id="line2d_10">
      <g>
       <use xlink:href="#m5ac35c60ca" x="177.304366" y="191.644035" style="stroke: #000000; stroke-width: 0.6"/>
      </g>
     </g>
    </g>
    <g id="xtick_9">
     <g id="line2d_11">
      <g>
       <use xlink:href="#m5ac35c60ca" x="188.793905" y="191.644035" style="stroke: #000000; stroke-width: 0.6"/>
      </g>
     </g>
    </g>
    <g id="xtick_10">
     <g id="line2d_12">
      <g>
       <use xlink:href="#m5ac35c60ca" x="198.928396" y="191.644035" style="stroke: #000000; stroke-width: 0.6"/>
      </g>
     </g>
    </g>
    <g id="xtick_11">
     <g id="line2d_13">
      <g>
       <use xlink:href="#m5ac35c60ca" x="267.634973" y="191.644035" style="stroke: #000000; stroke-width: 0.6"/>
      </g>
     </g>
    </g>
    <g id="xtick_12">
     <g id="line2d_14">
      <g>
       <use xlink:href="#m5ac35c60ca" x="302.522702" y="191.644035" style="stroke: #000000; stroke-width: 0.6"/>
      </g>
     </g>
    </g>
    <g id="xtick_13">
     <g id="line2d_15">
      <g>
       <use xlink:href="#m5ac35c60ca" x="327.275939" y="191.644035" style="stroke: #000000; stroke-width: 0.6"/>
      </g>
     </g>
    </g>
    <g id="xtick_14">
     <g id="line2d_16">
      <g>
       <use xlink:href="#m5ac35c60ca" x="346.476042" y="191.644035" style="stroke: #000000; stroke-width: 0.6"/>
      </g>
     </g>
    </g>
    <g id="xtick_15">
     <g id="line2d_17">
      <g>
       <use xlink:href="#m5ac35c60ca" x="362.163668" y="191.644035" style="stroke: #000000; stroke-width: 0.6"/>
      </g>
     </g>
    </g>
    <g id="xtick_16">
     <g id="line2d_18">
      <g>
       <use xlink:href="#m5ac35c60ca" x="375.427367" y="191.644035" style="stroke: #000000; stroke-width: 0.6"/>
      </g>
     </g>
    </g>
    <g id="xtick_17">
     <g id="line2d_19">
      <g>
       <use xlink:href="#m5ac35c60ca" x="386.916905" y="191.644035" style="stroke: #000000; stroke-width: 0.6"/>
      </g>
     </g>
    </g>
    <g id="xtick_18">
     <g id="line2d_20">
      <g>
       <use xlink:href="#m5ac35c60ca" x="397.051396" y="191.644035" style="stroke: #000000; stroke-width: 0.6"/>
      </g>
     </g>
    </g>
    <g id="xtick_19">
     <g id="line2d_21">
      <g>
       <use xlink:href="#m5ac35c60ca" x="465.757974" y="191.644035" style="stroke: #000000; stroke-width: 0.6"/>
      </g>
     </g>
    </g>
    <g id="text_3">
     <!-- $k\ [h\,\mathrm{Mpc}^{-1}]$ -->
     <g transform="translate(249.041406 219.519035)">
      <text>
       <tspan x="0" y="-0.960938" style="font-style: oblique; font-size: 8.5px; font-family: 'DejaVu Sans'">k</tspan>
       <tspan x="10.998508" y="-0.960938" style="font-style: oblique; font-size: 8.5px; font-family: 'DejaVu Sans'">h</tspan>
       <tspan x="7.682345" y="-0.960938" style="font-size: 8.5px; font-family: 'DejaVu Sans'">[</tspan>
       <tspan x="17.765747" y="-0.960938" style="font-size: 8.5px; font-family: 'DejaVu Sans'">M</tspan>
       <tspan x="25.099487" y="-0.960938" style="font-size: 8.5px; font-family: 'DejaVu Sans'">p</tspan>
       <tspan x="30.494995" y="-0.960938" style="font-size: 8.5px; font-family: 'DejaVu Sans'">c</tspan>
       <tspan x="44.271582" y="-0.960938" style="font-size: 8.5px; font-family: 'DejaVu Sans'">]</tspan>
       <tspan x="35.254468" y="-4.40625" style="font-size: 5.95px; font-family: 'DejaVu Sans'">−</tspan>
       <tspan x="40.239917" y="-4.40625" style="font-size: 5.95px; font-family: 'DejaVu Sans'">1</tspan>
      </text>
     </g>
    </g>
   </g>
   <g id="matplotlib.axis_2">
    <g id="ytick_1">
     <g id="line2d_22">
      <path d="M 45.211406 181.679247 
L 500.471406 181.679247 
" clip-path="url(#p4e062e66b1)" style="fill: none; stroke: #d0d0d0; stroke-opacity: 0.65; stroke-width: 0.55; stroke-linecap: square"/>
     </g>
     <g id="line2d_23">
      <defs>
       <path id="m07fdb6e804" d="M 0 0 
L -3.5 0 
" style="stroke: #000000; stroke-width: 0.8"/>
      </defs>
      <g>
       <use xlink:href="#m07fdb6e804" x="45.211406" y="181.679247" style="stroke: #000000; stroke-width: 0.8"/>
      </g>
     </g>
     <g id="text_4">
      <text style="font-size: 7.5px; font-family: 'Arial'; text-anchor: end" x="38.211406" y="184.363427" transform="rotate(-0 38.211406 184.363427)">0.012</text>
     </g>
    </g>
    <g id="ytick_2">
     <g id="line2d_24">
      <path d="M 45.211406 150.436014 
L 500.471406 150.436014 
" clip-path="url(#p4e062e66b1)" style="fill: none; stroke: #d0d0d0; stroke-opacity: 0.65; stroke-width: 0.55; stroke-linecap: square"/>
     </g>
     <g id="line2d_25">
      <g>
       <use xlink:href="#m07fdb6e804" x="45.211406" y="150.436014" style="stroke: #000000; stroke-width: 0.8"/>
      </g>
     </g>
     <g id="text_5">
      <text style="font-size: 7.5px; font-family: 'Arial'; text-anchor: end" x="38.211406" y="153.120194" transform="rotate(-0 38.211406 153.120194)">0.014</text>
     </g>
    </g>
    <g id="ytick_3">
     <g id="line2d_26">
      <path d="M 45.211406 119.192781 
L 500.471406 119.192781 
" clip-path="url(#p4e062e66b1)" style="fill: none; stroke: #d0d0d0; stroke-opacity: 0.65; stroke-width: 0.55; stroke-linecap: square"/>
     </g>
     <g id="line2d_27">
      <g>
       <use xlink:href="#m07fdb6e804" x="45.211406" y="119.192781" style="stroke: #000000; stroke-width: 0.8"/>
      </g>
     </g>
     <g id="text_6">
      <text style="font-size: 7.5px; font-family: 'Arial'; text-anchor: end" x="38.211406" y="121.876961" transform="rotate(-0 38.211406 121.876961)">0.016</text>
     </g>
    </g>
    <g id="ytick_4">
     <g id="line2d_28">
      <path d="M 45.211406 87.949549 
L 500.471406 87.949549 
" clip-path="url(#p4e062e66b1)" style="fill: none; stroke: #d0d0d0; stroke-opacity: 0.65; stroke-width: 0.55; stroke-linecap: square"/>
     </g>
     <g id="line2d_29">
      <g>
       <use xlink:href="#m07fdb6e804" x="45.211406" y="87.949549" style="stroke: #000000; stroke-width: 0.8"/>
      </g>
     </g>
     <g id="text_7">
      <text style="font-size: 7.5px; font-family: 'Arial'; text-anchor: end" x="38.211406" y="90.633728" transform="rotate(-0 38.211406 90.633728)">0.018</text>
     </g>
    </g>
    <g id="ytick_5">
     <g id="line2d_30">
      <path d="M 45.211406 56.706316 
L 500.471406 56.706316 
" clip-path="url(#p4e062e66b1)" style="fill: none; stroke: #d0d0d0; stroke-opacity: 0.65; stroke-width: 0.55; stroke-linecap: square"/>
     </g>
     <g id="line2d_31">
      <g>
       <use xlink:href="#m07fdb6e804" x="45.211406" y="56.706316" style="stroke: #000000; stroke-width: 0.8"/>
      </g>
     </g>
     <g id="text_8">
      <text style="font-size: 7.5px; font-family: 'Arial'; text-anchor: end" x="38.211406" y="59.390495" transform="rotate(-0 38.211406 59.390495)">0.020</text>
     </g>
    </g>
    <g id="ytick_6">
     <g id="line2d_32">
      <path d="M 45.211406 25.463083 
L 500.471406 25.463083 
" clip-path="url(#p4e062e66b1)" style="fill: none; stroke: #d0d0d0; stroke-opacity: 0.65; stroke-width: 0.55; stroke-linecap: square"/>
     </g>
     <g id="line2d_33">
      <g>
       <use xlink:href="#m07fdb6e804" x="45.211406" y="25.463083" style="stroke: #000000; stroke-width: 0.8"/>
      </g>
     </g>
     <g id="text_9">
      <text style="font-size: 7.5px; font-family: 'Arial'; text-anchor: end" x="38.211406" y="28.147263" transform="rotate(-0 38.211406 28.147263)">0.022</text>
     </g>
    </g>
    <g id="text_10">
     <!-- $p68(k)$ relative error -->
     <g transform="translate(13.66 138.435193) rotate(-90)">
      <text>
       <tspan x="0" y="-0.15625" style="font-style: oblique; font-size: 8.5px; font-family: 'DejaVu Sans'">p</tspan>
       <tspan x="19.527588" y="-0.15625" style="font-style: oblique; font-size: 8.5px; font-family: 'DejaVu Sans'">k</tspan>
       <tspan x="5.395508" y="-0.15625" style="font-size: 8.5px; font-family: 'DejaVu Sans'">6</tspan>
       <tspan x="10.803467" y="-0.15625" style="font-size: 8.5px; font-family: 'DejaVu Sans'">8</tspan>
       <tspan x="16.211426" y="-0.15625" style="font-size: 8.5px; font-family: 'DejaVu Sans'">(</tspan>
       <tspan x="24.449951" y="-0.15625" style="font-size: 8.5px; font-family: 'DejaVu Sans'">)</tspan>
       <tspan x="27.766113" y="-0.15625" style="font-size: 8.5px; font-family: 'Arial'"> </tspan>
       <tspan x="30.127686" y="-0.15625" style="font-size: 8.5px; font-family: 'Arial'">r</tspan>
       <tspan x="32.958252" y="-0.15625" style="font-size: 8.5px; font-family: 'Arial'">e</tspan>
       <tspan x="37.685547" y="-0.15625" style="font-size: 8.5px; font-family: 'Arial'">l</tspan>
       <tspan x="39.573975" y="-0.15625" style="font-size: 8.5px; font-family: 'Arial'">a</tspan>
       <tspan x="44.30127" y="-0.15625" style="font-size: 8.5px; font-family: 'Arial'">t</tspan>
       <tspan x="46.662842" y="-0.15625" style="font-size: 8.5px; font-family: 'Arial'">i</tspan>
       <tspan x="48.55127" y="-0.15625" style="font-size: 8.5px; font-family: 'Arial'">v</tspan>
       <tspan x="52.80127" y="-0.15625" style="font-size: 8.5px; font-family: 'Arial'">e</tspan>
       <tspan x="57.528564" y="-0.15625" style="font-size: 8.5px; font-family: 'Arial'"> </tspan>
       <tspan x="59.890137" y="-0.15625" style="font-size: 8.5px; font-family: 'Arial'">e</tspan>
       <tspan x="64.617432" y="-0.15625" style="font-size: 8.5px; font-family: 'Arial'">r</tspan>
       <tspan x="67.447998" y="-0.15625" style="font-size: 8.5px; font-family: 'Arial'">r</tspan>
       <tspan x="70.278564" y="-0.15625" style="font-size: 8.5px; font-family: 'Arial'">o</tspan>
       <tspan x="75.005859" y="-0.15625" style="font-size: 8.5px; font-family: 'Arial'">r</tspan>
      </text>
     </g>
    </g>
   </g>
   <g id="line2d_34">
    <path d="M 177.304366 191.644035 
L 177.304366 7.366351 
" clip-path="url(#p4e062e66b1)" style="fill: none; stroke-dasharray: 1.95,1.95; stroke-dashoffset: 0; stroke: #bdbdbd; stroke-width: 0.65"/>
   </g>
   <g id="line2d_35">
    <path d="M 346.476042 191.644035 
L 346.476042 7.366351 
" clip-path="url(#p4e062e66b1)" style="fill: none; stroke-dasharray: 1.95,1.95; stroke-dashoffset: 0; stroke: #bdbdbd; stroke-width: 0.65"/>
   </g>
   <g id="line2d_36">
    <path d="M 406.117008 191.644035 
L 406.117008 7.366351 
" clip-path="url(#p4e062e66b1)" style="fill: none; stroke-dasharray: 1.95,1.95; stroke-dashoffset: 0; stroke: #bdbdbd; stroke-width: 0.65"/>
   </g>
   <g id="FillBetweenPolyCollection_1">
    <path d="M 45.211406 132.416195 
L 45.211406 132.416195 
L 52.159451 132.661 
L 45.211406 129.019846 
z
" clip-path="url(#p4e062e66b1)" style="fill: #0072b2; fill-opacity: 0.12"/>
    <path d="M 91.290052 153.018831 
L 97.959724 162.346094 
L 116.052922 178.695193 
L 130.176908 181.088233 
L 142.601742 169.910699 
L 153.500142 174.05516 
L 154.390855 172.498579 
L 153.500142 171.91695 
L 142.601742 166.946434 
L 130.176908 163.041681 
L 116.052922 161.361294 
L 97.959724 155.769268 
z
" clip-path="url(#p4e062e66b1)" style="fill: #0072b2; fill-opacity: 0.12"/>
    <path d="M 172.093572 168.998361 
L 179.688044 178.357249 
L 186.922259 179.354889 
L 193.710105 182.604604 
L 199.849422 186.179037 
L 205.5574 186.574498 
L 210.93433 186.392566 
L 216.005069 185.462253 
L 220.804894 177.154715 
L 225.362299 170.930406 
L 229.691815 168.967104 
L 233.784306 165.52134 
L 237.676632 163.491028 
L 241.443382 159.768912 
L 245.02681 163.996631 
L 248.470225 165.144582 
L 251.809113 160.425787 
L 255.016826 157.099679 
L 258.078721 158.899053 
L 261.036271 156.656355 
L 263.889452 153.139778 
L 266.678456 150.901445 
L 269.378406 150.035835 
L 271.994317 143.21294 
L 274.531798 140.83676 
L 276.989645 143.8783 
L 279.384083 142.343145 
L 281.699132 142.97025 
L 283.962336 141.797271 
L 286.173668 140.893572 
L 288.319101 139.631361 
L 290.419146 136.04759 
L 292.471758 133.02768 
L 294.484201 132.077878 
L 296.448815 130.456594 
L 298.361453 128.469492 
L 300.222868 127.625058 
L 302.046704 125.822341 
L 303.842835 126.584139 
L 305.601232 124.546007 
L 307.324202 123.718974 
L 309.016818 122.194827 
L 310.675769 121.055613 
L 312.304048 119.583667 
L 313.889908 117.206059 
L 315.453341 116.785378 
L 316.992637 115.825243 
L 318.494684 114.005691 
L 319.979033 112.005397 
L 321.438916 110.101597 
L 322.877283 110.079304 
L 324.289318 110.871288 
L 325.672292 109.31816 
L 327.044695 108.373169 
L 328.388857 107.853318 
L 329.71306 106.866124 
L 331.018309 105.430583 
L 332.297746 105.692341 
L 333.567197 106.182194 
L 334.816382 106.474028 
L 336.041953 105.953431 
L 337.250324 105.094515 
L 338.444634 104.397666 
L 339.630801 104.778661 
L 340.796971 104.524677 
L 341.944482 103.956626 
L 343.077428 102.938354 
L 344.191981 102.287499 
L 345.29253 102.534723 
L 346.381459 102.521882 
L 347.454098 102.501051 
L 348.515422 102.169761 
L 349.571078 102.195784 
L 350.610018 102.526952 
L 351.631772 102.636996 
L 352.643913 102.390434 
L 353.647296 102.083371 
L 354.636678 101.689873 
L 355.609491 101.342861 
L 356.577713 101.232633 
L 357.538777 101.391865 
L 358.483793 101.662952 
L 359.417828 101.84558 
L 360.34329 101.91603 
L 361.257988 101.935111 
L 362.163269 101.911461 
L 363.057865 101.900097 
L 363.944428 101.823607 
L 364.824973 101.858174 
L 365.694187 101.949188 
L 366.553124 102.101572 
L 367.407077 102.299573 
L 368.251006 102.527157 
L 369.086383 102.32985 
L 369.914688 102.05687 
L 370.733564 102.352395 
L 371.545149 102.50306 
L 372.350024 102.654991 
L 373.145934 102.908869 
L 373.934446 103.221495 
L 374.71573 103.314672 
L 375.490958 103.528974 
L 376.260708 103.803322 
L 377.022964 103.86533 
L 377.778583 102.924775 
L 378.527822 102.350243 
L 379.269451 101.870922 
L 380.005173 101.835564 
L 380.733528 102.143341 
L 381.454027 102.206977 
L 382.171741 102.436862 
L 382.883471 102.593617 
L 383.588675 102.728264 
L 384.289369 103.010763 
L 384.984436 103.080446 
L 385.674486 103.390907 
L 386.354677 103.469236 
L 387.029668 103.788472 
L 387.702372 103.872796 
L 388.369782 104.133546 
L 389.032661 104.337547 
L 389.689181 104.649605 
L 390.342233 104.764221 
L 390.991571 104.931281 
L 391.6321 105.188353 
L 392.267631 105.441017 
L 392.901175 105.770156 
L 393.529543 105.969147 
L 394.152565 106.278815 
L 394.771325 106.51394 
L 395.386254 106.903802 
L 395.99649 107.127736 
L 396.60169 107.473039 
L 397.203812 107.737585 
L 397.801795 108.050463 
L 398.395971 108.411344 
L 398.985843 108.74248 
L 399.570929 109.014642 
L 400.152856 109.379294 
L 400.731354 109.671385 
L 401.303867 109.986037 
L 401.872387 110.33764 
L 402.437779 110.713494 
L 403.001129 110.98784 
L 403.561406 111.287094 
L 404.115602 111.664491 
L 404.666397 111.997483 
L 405.213726 112.319982 
L 405.758804 112.65083 
L 406.300621 112.97905 
L 406.83717 113.317771 
L 407.372143 113.775279 
L 407.904584 114.188283 
L 408.432333 114.550289 
L 408.957172 115.027785 
L 409.479095 115.463174 
L 409.997127 115.850976 
L 410.511824 116.268871 
L 411.023519 116.610168 
L 411.532709 116.986894 
L 412.039612 117.354067 
L 412.543137 117.760891 
L 413.043212 118.10701 
L 413.540586 118.464105 
L 414.034979 118.831943 
L 414.52732 119.215599 
L 415.016111 119.528815 
L 415.500641 120.016728 
L 415.983556 120.494926 
L 416.464821 120.685016 
L 416.943907 121.023325 
L 417.418641 121.198467 
L 417.890823 121.619308 
L 418.362518 121.862324 
L 418.830404 122.240327 
L 419.295266 122.532883 
L 419.757962 122.843672 
L 420.218915 123.173003 
L 420.676381 123.433103 
L 421.130472 123.777051 
L 421.582941 124.084289 
L 422.033888 124.337263 
L 422.482195 124.891313 
L 422.927596 125.372478 
L 423.371317 125.878514 
L 423.813119 126.418045 
L 424.252765 126.873743 
L 424.688581 127.437054 
L 425.122422 127.418486 
L 425.555322 127.562695 
L 425.985648 127.625452 
L 426.413662 127.726153 
L 426.839703 127.872807 
L 427.263886 128.057264 
L 427.685628 128.201774 
L 428.105735 128.355699 
L 428.523903 128.527333 
L 428.939112 128.674589 
L 429.352288 128.861362 
L 429.764051 129.001647 
L 430.17393 129.199562 
L 430.581441 129.381344 
L 430.987062 129.575662 
L 431.391843 129.800889 
L 431.794378 130.060708 
L 432.193797 130.266065 
L 432.592018 130.475125 
L 432.988533 130.703853 
L 433.3834 130.910682 
L 433.776345 131.235756 
L 434.166904 131.698328 
L 434.556611 132.018049 
L 434.944371 132.331805 
L 435.330238 132.679636 
L 435.714593 132.990681 
L 436.097008 133.32178 
L 436.477571 133.685931 
L 436.856409 134.025756 
L 437.234157 134.423236 
L 437.610318 134.830675 
L 437.984028 135.060791 
L 438.356255 135.508044 
L 438.727363 135.882014 
L 439.097116 136.238812 
L 439.464792 136.602343 
L 439.830578 136.843003 
L 440.195354 137.261446 
L 440.558081 137.506602 
L 440.918793 137.89581 
L 441.278823 138.280927 
L 441.637747 138.4452 
L 441.994924 138.788129 
L 442.350697 139.133134 
L 442.70514 139.359699 
L 443.058289 139.787367 
L 443.409343 140.259602 
L 443.758567 140.670648 
L 444.107249 141.095744 
L 444.454268 141.521165 
L 444.799199 141.891259 
L 445.143457 142.393587 
L 445.486629 142.771441 
L 445.828004 143.241635 
L 446.167638 143.620252 
L 446.506577 143.977037 
L 446.844679 144.490916 
L 447.180496 144.819748 
L 447.515014 145.215211 
L 447.848647 145.665267 
L 448.180772 146.076146 
L 448.511782 146.502398 
L 448.841386 146.902903 
L 449.169546 147.245222 
L 449.496781 147.692197 
L 449.822851 148.124212 
L 450.147892 148.507041 
L 450.471245 148.934306 
L 450.792966 149.30237 
L 451.114436 149.823629 
L 451.434911 150.285233 
L 451.753085 150.718974 
L 452.070515 150.767875 
L 452.387232 150.742415 
L 452.702454 150.876555 
L 453.016472 150.868905 
L 453.329011 150.873445 
L 453.641085 150.929646 
L 453.951602 150.968681 
L 454.260604 151.049764 
L 454.569236 151.135957 
L 454.876626 151.20194 
L 455.182811 151.170959 
L 455.487933 151.098697 
L 455.792121 150.871503 
L 456.095129 150.685848 
L 456.397113 150.613878 
L 456.697865 150.480508 
L 456.997461 150.368933 
L 457.296085 150.141772 
L 457.593806 149.911309 
L 457.890703 149.794946 
L 458.186383 149.710015 
L 458.481101 149.563993 
L 458.775057 149.306629 
L 459.067769 149.237512 
L 459.359355 149.104625 
L 459.649974 148.85821 
L 459.939614 148.712075 
L 460.228589 148.616845 
L 460.516361 148.460554 
L 460.802942 148.277239 
L 461.08844 148.096994 
L 461.37361 147.985103 
L 461.65793 147.879382 
L 461.940557 147.966735 
L 462.222681 148.106959 
L 462.503994 148.244079 
L 462.784466 148.404528 
L 463.063608 147.930401 
L 463.341741 147.768357 
L 463.619515 147.509168 
L 463.896411 147.322457 
L 464.172278 147.118318 
L 464.447075 146.742115 
L 464.721309 146.640617 
L 464.994744 146.261181 
L 465.26688 146.069163 
L 465.538122 145.870589 
L 465.808711 145.694845 
L 466.078304 145.37442 
L 466.346963 145.164346 
L 466.614868 144.932537 
L 466.882507 144.710168 
L 467.149206 144.457668 
L 467.414356 144.570662 
L 467.678982 144.712436 
L 467.943237 144.901439 
L 468.206474 145.027649 
L 468.468818 145.230746 
L 468.730464 145.338664 
L 468.991485 145.518941 
L 469.251125 145.487505 
L 469.509709 145.363603 
L 469.76837 145.133564 
L 470.025983 144.998239 
L 470.282671 144.793181 
L 470.538848 144.671084 
L 470.79408 144.470647 
L 471.048693 144.355708 
L 471.302583 144.11796 
L 471.555918 143.973615 
L 471.808337 144.182977 
L 472.059656 144.647733 
L 472.310642 144.965029 
L 472.56086 145.408007 
L 472.810353 145.748183 
L 473.059049 146.220998 
L 473.306633 146.569418 
L 473.553863 146.71338 
L 473.800666 146.571772 
L 474.046482 146.809729 
L 474.291459 147.04238 
L 474.535899 147.314332 
L 474.779839 147.578787 
L 475.022786 147.661455 
L 475.265205 148.123636 
L 475.507026 148.463184 
L 475.747949 148.888357 
L 475.988264 149.261907 
L 476.2277 149.321329 
L 476.466808 149.238526 
L 476.705089 149.058554 
L 476.942794 148.915346 
L 477.180033 148.766478 
L 477.416315 148.701585 
L 477.652226 148.545528 
L 477.887244 148.727445 
L 478.121558 148.945585 
L 478.355529 149.14193 
L 478.588919 149.378711 
L 478.821518 149.565518 
L 479.053121 149.319391 
L 479.284366 149.026339 
L 479.515261 148.783154 
L 479.745487 148.584562 
L 479.974932 148.264953 
L 480.20349 148.049981 
L 480.43172 147.836262 
L 480.6595 147.560578 
L 480.886439 147.308443 
L 481.112841 147.116586 
L 481.338485 146.854164 
L 481.563668 146.603507 
L 481.788552 146.406974 
L 482.012749 146.368025 
L 482.236447 146.32725 
L 482.459227 146.290235 
L 482.681356 146.324813 
L 482.903183 146.304859 
L 483.12453 145.778212 
L 483.34511 145.067822 
L 483.565092 144.308463 
L 483.784712 144.231706 
L 484.003633 143.972525 
L 484.22179 143.777257 
L 484.439595 143.766757 
L 484.657063 143.947835 
L 484.873663 144.100637 
L 485.08985 144.283982 
L 485.30561 144.411753 
L 485.520708 144.712875 
L 485.735423 144.977726 
L 485.949475 145.343735 
L 486.16289 145.653741 
L 486.375947 146.000713 
L 486.588477 146.255094 
L 486.800227 146.591125 
L 487.011401 146.723485 
L 487.222545 146.732072 
L 487.433069 146.711243 
L 487.642785 146.754889 
L 487.852245 147.098861 
L 488.061148 147.562562 
L 488.269341 148.040023 
L 488.476952 148.49592 
L 488.684409 148.901563 
L 488.891296 149.370931 
L 489.097343 149.812099 
L 489.303265 150.21283 
L 489.508742 150.728864 
L 489.713589 151.080676 
L 489.917958 150.6731 
L 490.122012 150.456403 
L 490.325553 150.072189 
L 490.528367 149.521151 
L 490.730912 149.747305 
L 490.93308 150.565779 
L 491.134645 151.596275 
L 491.335593 152.098934 
L 491.536036 152.018504 
L 491.73596 151.918942 
L 491.935503 151.852564 
L 492.134713 151.701875 
L 492.333516 151.673087 
L 492.53207 151.580177 
L 492.729756 151.422339 
L 492.926816 151.394479 
L 493.123858 151.230618 
L 493.320324 150.890049 
L 493.516335 150.430355 
L 493.711953 150.309161 
L 493.907067 150.305186 
L 494.10174 150.23621 
L 494.295833 150.160292 
L 494.489542 150.097096 
L 494.682983 150.123744 
L 494.876006 150.049815 
L 495.068552 150.11379 
L 495.260341 150.283096 
L 495.451871 150.3831 
L 495.64341 150.514749 
L 495.83427 150.632099 
L 496.024578 150.74424 
L 496.214539 150.891474 
L 496.404073 151.013624 
L 496.593127 151.116574 
L 496.781837 151.275525 
L 496.970163 151.348758 
L 497.158049 151.543052 
L 497.345484 151.624979 
L 497.532475 151.739678 
L 497.719004 151.793071 
L 497.905159 151.720158 
L 498.091122 151.567755 
L 498.276607 151.443639 
L 498.461644 151.460146 
L 498.646396 151.304519 
L 498.83062 151.23658 
L 499.014436 151.065494 
L 499.197992 150.793145 
L 499.381005 150.641621 
L 499.563684 150.516475 
L 499.74606 150.429066 
L 499.927912 150.317006 
L 500.109415 150.24736 
L 500.290666 150.122229 
L 500.471406 150.009802 
L 500.471406 150.009802 
L 500.471406 79.55256 
L 500.290666 79.502413 
L 500.109415 79.428105 
L 499.927912 79.34178 
L 499.74606 79.263453 
L 499.563684 79.24203 
L 499.381005 79.15644 
L 499.197992 79.095164 
L 499.014436 79.029397 
L 498.83062 78.968379 
L 498.646396 78.923495 
L 498.461644 78.852108 
L 498.276607 78.776272 
L 498.091122 78.705601 
L 497.905159 78.659823 
L 497.719004 78.593095 
L 497.532475 78.504749 
L 497.345484 78.444618 
L 497.158049 78.387762 
L 496.970163 78.31112 
L 496.781837 78.245472 
L 496.593127 78.175645 
L 496.404073 78.0876 
L 496.214539 78.02845 
L 496.024578 77.93086 
L 495.83427 77.858597 
L 495.64341 77.820076 
L 495.451871 77.737952 
L 495.260341 77.658422 
L 495.068552 77.580425 
L 494.876006 77.531534 
L 494.682983 77.781107 
L 494.489542 78.127887 
L 494.295833 78.564737 
L 494.10174 79.173176 
L 493.907067 79.835069 
L 493.711953 80.451604 
L 493.516335 81.074717 
L 493.320324 81.755843 
L 493.123858 82.317508 
L 492.926816 83.028666 
L 492.729756 83.565142 
L 492.53207 84.296135 
L 492.333516 84.224883 
L 492.134713 84.027322 
L 491.935503 83.828549 
L 491.73596 83.653896 
L 491.536036 83.496027 
L 491.335593 83.353612 
L 491.134645 83.149201 
L 490.93308 82.978619 
L 490.730912 82.820978 
L 490.528367 82.621235 
L 490.325553 82.419634 
L 490.122012 82.245112 
L 489.917958 82.412331 
L 489.713589 82.623927 
L 489.508742 82.696111 
L 489.303265 82.920291 
L 489.097343 83.018788 
L 488.891296 83.157845 
L 488.684409 83.334222 
L 488.476952 83.542543 
L 488.269341 83.907546 
L 488.061148 84.36116 
L 487.852245 84.747804 
L 487.642785 85.046884 
L 487.433069 84.801799 
L 487.222545 84.570148 
L 487.011401 84.281671 
L 486.800227 84.097977 
L 486.588477 83.831417 
L 486.375947 83.6451 
L 486.16289 83.371293 
L 485.949475 83.136086 
L 485.735423 82.898546 
L 485.520708 82.633013 
L 485.30561 82.394099 
L 485.08985 82.198966 
L 484.873663 81.935567 
L 484.657063 81.701564 
L 484.439595 81.470948 
L 484.22179 81.221058 
L 484.003633 80.970192 
L 483.784712 80.719534 
L 483.565092 80.477632 
L 483.34511 80.210682 
L 483.12453 79.988935 
L 482.903183 79.708876 
L 482.681356 79.47479 
L 482.459227 79.28534 
L 482.236447 78.981192 
L 482.012749 78.708901 
L 481.788552 78.493416 
L 481.563668 78.174485 
L 481.338485 77.865604 
L 481.112841 77.633902 
L 480.886439 77.385664 
L 480.6595 77.108912 
L 480.43172 76.837437 
L 480.20349 76.581663 
L 479.974932 76.421467 
L 479.745487 76.195924 
L 479.515261 75.973203 
L 479.284366 75.721983 
L 479.053121 75.46059 
L 478.821518 75.253511 
L 478.588919 75.126085 
L 478.355529 74.900766 
L 478.121558 74.469548 
L 477.887244 73.999162 
L 477.652226 73.533316 
L 477.416315 73.262801 
L 477.180033 73.012902 
L 476.942794 72.710623 
L 476.705089 72.422124 
L 476.466808 72.095507 
L 476.2277 71.912988 
L 475.988264 71.687339 
L 475.747949 71.595494 
L 475.507026 71.538709 
L 475.265205 71.463168 
L 475.022786 71.431911 
L 474.779839 71.363221 
L 474.535899 71.31052 
L 474.291459 71.253528 
L 474.046482 71.181045 
L 473.800666 71.12784 
L 473.553863 71.063492 
L 473.306633 70.985418 
L 473.059049 70.936073 
L 472.810353 70.849406 
L 472.56086 70.727357 
L 472.310642 70.513168 
L 472.059656 70.308642 
L 471.808337 70.081325 
L 471.555918 69.837861 
L 471.302583 69.625214 
L 471.048693 69.373288 
L 470.79408 69.194969 
L 470.538848 68.927831 
L 470.282671 68.713461 
L 470.025983 68.48313 
L 469.76837 68.26628 
L 469.509709 68.010906 
L 469.251125 67.806254 
L 468.991485 67.591574 
L 468.730464 67.361555 
L 468.468818 67.121321 
L 468.206474 66.908819 
L 467.943237 66.671298 
L 467.678982 66.170265 
L 467.414356 65.837064 
L 467.149206 65.481444 
L 466.882507 65.165968 
L 466.614868 64.81787 
L 466.346963 64.477636 
L 466.078304 64.077227 
L 465.808711 63.614313 
L 465.538122 63.226157 
L 465.26688 62.839771 
L 464.994744 62.585704 
L 464.721309 62.479554 
L 464.447075 62.317608 
L 464.172278 62.213949 
L 463.896411 62.106156 
L 463.619515 61.968421 
L 463.341741 61.850345 
L 463.063608 61.734643 
L 462.784466 61.75409 
L 462.503994 61.686829 
L 462.222681 61.637459 
L 461.940557 61.58517 
L 461.65793 61.293122 
L 461.37361 61.065617 
L 461.08844 60.782213 
L 460.802942 60.520278 
L 460.516361 60.297435 
L 460.228589 60.021763 
L 459.939614 59.770385 
L 459.649974 59.514659 
L 459.359355 59.229828 
L 459.067769 59.015391 
L 458.775057 58.782017 
L 458.481101 58.58053 
L 458.186383 58.410437 
L 457.890703 58.210696 
L 457.593806 58.047635 
L 457.296085 57.784106 
L 456.997461 57.618401 
L 456.697865 57.418625 
L 456.397113 57.253305 
L 456.095129 57.034721 
L 455.792121 56.861268 
L 455.487933 56.642844 
L 455.182811 56.447805 
L 454.876626 56.232279 
L 454.569236 56.007829 
L 454.260604 55.819391 
L 453.951602 55.549629 
L 453.641085 55.409138 
L 453.329011 55.191286 
L 453.016472 55.008638 
L 452.702454 54.794726 
L 452.387232 54.550436 
L 452.070515 54.363386 
L 451.753085 54.175831 
L 451.434911 53.932706 
L 451.114436 53.716042 
L 450.792966 53.56999 
L 450.471245 53.256436 
L 450.147892 53.1161 
L 449.822851 52.86853 
L 449.496781 52.730054 
L 449.169546 52.478423 
L 448.841386 52.280288 
L 448.511782 52.036107 
L 448.180772 51.819794 
L 447.848647 51.614372 
L 447.515014 51.411442 
L 447.180496 51.219784 
L 446.844679 50.99717 
L 446.506577 50.789384 
L 446.167638 50.59656 
L 445.828004 50.492274 
L 445.486629 50.302536 
L 445.143457 50.093724 
L 444.799199 50.000184 
L 444.454268 49.81494 
L 444.107249 49.663612 
L 443.758567 49.5205 
L 443.409343 49.323385 
L 443.058289 49.2396 
L 442.70514 49.030999 
L 442.350697 48.816826 
L 441.994924 48.720967 
L 441.637747 48.503079 
L 441.278823 48.318442 
L 440.918793 48.124283 
L 440.558081 47.937357 
L 440.195354 47.790661 
L 439.830578 47.573721 
L 439.464792 47.39826 
L 439.097116 47.231601 
L 438.727363 46.997565 
L 438.356255 46.830785 
L 437.984028 46.599096 
L 437.610318 46.360384 
L 437.234157 46.176631 
L 436.856409 46.015479 
L 436.477571 45.778364 
L 436.097008 45.588729 
L 435.714593 45.386877 
L 435.330238 45.189645 
L 434.944371 44.960225 
L 434.556611 44.737574 
L 434.166904 44.602327 
L 433.776345 44.285954 
L 433.3834 44.129254 
L 432.988533 43.901796 
L 432.592018 43.716877 
L 432.193797 43.442676 
L 431.794378 43.211102 
L 431.391843 43.046483 
L 430.987062 42.764536 
L 430.581441 42.533 
L 430.17393 42.311984 
L 429.764051 42.108935 
L 429.352288 41.834616 
L 428.939112 41.623675 
L 428.523903 41.346713 
L 428.105735 41.160608 
L 427.685628 40.898553 
L 427.263886 40.605393 
L 426.839703 40.440483 
L 426.413662 40.178915 
L 425.985648 39.914867 
L 425.555322 39.663714 
L 425.122422 39.43553 
L 424.688581 39.162414 
L 424.252765 38.904661 
L 423.813119 38.667441 
L 423.371317 38.40582 
L 422.927596 38.123238 
L 422.482195 37.830158 
L 422.033888 37.544084 
L 421.582941 37.372869 
L 421.130472 37.109233 
L 420.676381 36.861144 
L 420.218915 36.587376 
L 419.757962 36.429648 
L 419.295266 36.082923 
L 418.830404 35.682778 
L 418.362518 35.264138 
L 417.890823 34.966153 
L 417.418641 34.529806 
L 416.943907 34.186196 
L 416.464821 33.813679 
L 415.983556 33.716581 
L 415.500641 33.440952 
L 415.016111 33.334212 
L 414.52732 33.125883 
L 414.034979 32.985183 
L 413.540586 32.855824 
L 413.043212 32.606083 
L 412.543137 32.494117 
L 412.039612 32.280727 
L 411.532709 32.125966 
L 411.023519 31.949224 
L 410.511824 31.815271 
L 409.997127 31.620563 
L 409.479095 31.582727 
L 408.957172 31.365684 
L 408.432333 31.194645 
L 407.904584 31.01309 
L 407.372143 30.91496 
L 406.83717 30.800327 
L 406.300621 30.59293 
L 405.758804 30.381908 
L 405.213726 30.217611 
L 404.666397 30.05924 
L 404.115602 29.862259 
L 403.561406 29.710035 
L 403.001129 29.571367 
L 402.437779 29.467967 
L 401.872387 29.244716 
L 401.303867 29.189797 
L 400.731354 29.046353 
L 400.152856 28.912336 
L 399.570929 28.806712 
L 398.985843 28.676179 
L 398.395971 28.597531 
L 397.801795 28.528904 
L 397.203812 28.433616 
L 396.60169 28.363083 
L 395.99649 28.272439 
L 395.386254 28.220542 
L 394.771325 28.165925 
L 394.152565 28.151455 
L 393.529543 28.195537 
L 392.901175 28.301615 
L 392.267631 28.487131 
L 391.6321 28.679257 
L 390.991571 28.828876 
L 390.342233 28.89594 
L 389.689181 28.879066 
L 389.032661 28.870428 
L 388.369782 28.890837 
L 387.702372 28.913963 
L 387.029668 28.977212 
L 386.354677 28.879627 
L 385.674486 28.881423 
L 384.984436 28.869967 
L 384.289369 28.954519 
L 383.588675 28.979761 
L 382.883471 29.042777 
L 382.171741 28.846134 
L 381.454027 29.059376 
L 380.733528 28.995555 
L 380.005173 29.155237 
L 379.269451 28.926602 
L 378.527822 29.137766 
L 377.778583 29.081337 
L 377.022964 29.082368 
L 376.260708 29.176854 
L 375.490958 29.292045 
L 374.71573 29.187088 
L 373.934446 29.285399 
L 373.145934 29.466691 
L 372.350024 29.629696 
L 371.545149 29.687155 
L 370.733564 29.911867 
L 369.914688 30.112752 
L 369.086383 30.423102 
L 368.251006 30.84857 
L 367.407077 31.232132 
L 366.553124 31.707165 
L 365.694187 32.298362 
L 364.824973 33.015477 
L 363.944428 33.678704 
L 363.057865 34.489357 
L 362.163269 35.185224 
L 361.257988 35.795272 
L 360.34329 36.355173 
L 359.417828 36.875984 
L 358.483793 37.344673 
L 357.538777 38.122419 
L 356.577713 39.202555 
L 355.609491 40.100816 
L 354.636678 41.06814 
L 353.647296 41.698678 
L 352.643913 42.361603 
L 351.631772 43.081887 
L 350.610018 43.758898 
L 349.571078 44.691489 
L 348.515422 45.365889 
L 347.454098 45.915493 
L 346.381459 46.800779 
L 345.29253 47.731751 
L 344.191981 49.070928 
L 343.077428 50.789904 
L 341.944482 52.820568 
L 340.796971 54.922731 
L 339.630801 56.089548 
L 338.444634 56.186046 
L 337.250324 55.752531 
L 336.041953 56.51899 
L 334.816382 58.525953 
L 333.567197 60.713254 
L 332.297746 62.451408 
L 331.018309 63.879106 
L 329.71306 65.661427 
L 328.388857 67.16427 
L 327.044695 69.234373 
L 325.672292 70.942563 
L 324.289318 70.370706 
L 322.877283 70.50874 
L 321.438916 71.247438 
L 319.979033 72.041679 
L 318.494684 72.358019 
L 316.992637 73.820432 
L 315.453341 75.732104 
L 313.889908 75.909657 
L 312.304048 77.23539 
L 310.675769 77.806008 
L 309.016818 78.742053 
L 307.324202 81.003945 
L 305.601232 80.992417 
L 303.842835 79.508853 
L 302.046704 81.11299 
L 300.222868 84.118445 
L 298.361453 83.699369 
L 296.448815 83.198626 
L 294.484201 84.17887 
L 292.471758 86.294731 
L 290.419146 88.677641 
L 288.319101 92.53473 
L 286.173668 94.640193 
L 283.962336 96.572975 
L 281.699132 98.597181 
L 279.384083 102.422684 
L 276.989645 101.871385 
L 274.531798 99.115901 
L 271.994317 103.345122 
L 269.378406 104.562508 
L 266.678456 106.915455 
L 263.889452 113.840397 
L 261.036271 118.628787 
L 258.078721 120.874113 
L 255.016826 120.712609 
L 251.809113 119.87326 
L 248.470225 117.035691 
L 245.02681 122.309015 
L 241.443382 129.213878 
L 237.676632 131.106699 
L 233.784306 131.482511 
L 229.691815 135.45013 
L 225.362299 139.717166 
L 220.804894 149.800902 
L 216.005069 152.761179 
L 210.93433 158.595557 
L 205.5574 161.909357 
L 199.849422 161.137582 
L 193.710105 156.515845 
L 186.922259 155.477851 
L 179.688044 158.355177 
z
" clip-path="url(#p4e062e66b1)" style="fill: #0072b2; fill-opacity: 0.12"/>
   </g>
   <g id="line2d_37">
    <path d="M 45.211406 129.019846 
L 75.525963 147.306034 
L 97.959724 155.769268 
L 116.052922 161.361294 
L 130.176908 163.041681 
L 142.601742 166.946434 
L 153.500142 171.91695 
L 163.253543 178.626003 
L 171.931 169.216084 
L 179.688044 158.355177 
L 186.922259 155.477851 
L 193.710105 156.515845 
L 199.849422 161.137582 
L 205.5574 161.909357 
L 210.93433 158.595557 
L 216.005069 152.761179 
L 220.804894 149.800902 
L 225.362299 139.717166 
L 233.784306 131.482511 
L 237.676632 131.106699 
L 241.443382 129.213878 
L 245.02681 122.309015 
L 248.470225 117.035691 
L 251.809113 119.87326 
L 255.016826 120.712609 
L 258.078721 120.874113 
L 261.036271 118.628787 
L 263.889452 113.840397 
L 266.678456 106.915455 
L 269.378406 104.562508 
L 271.994317 103.345122 
L 274.531798 99.115901 
L 276.989645 101.871385 
L 279.384083 102.422684 
L 281.699132 98.597181 
L 288.319101 92.53473 
L 290.419146 88.677641 
L 292.471758 86.294731 
L 294.484201 84.17887 
L 296.448815 83.198626 
L 300.222868 84.118445 
L 302.046704 81.11299 
L 303.842835 79.508853 
L 305.601232 80.992417 
L 307.324202 81.003945 
L 309.016818 78.742053 
L 310.675769 77.806008 
L 312.304048 77.23539 
L 313.889908 75.909657 
L 315.453341 75.732104 
L 316.992637 73.820432 
L 318.494684 72.358019 
L 319.979033 72.041679 
L 322.877283 70.50874 
L 324.289318 70.370706 
L 325.672292 70.942563 
L 327.044695 69.234373 
L 328.388857 67.16427 
L 329.71306 65.661427 
L 331.018309 63.879106 
L 332.297746 62.451408 
L 333.567197 60.713254 
L 336.041953 56.51899 
L 337.250324 55.752531 
L 338.444634 56.186046 
L 339.630801 56.089548 
L 340.796971 54.922731 
L 343.077428 50.789904 
L 344.191981 49.070928 
L 345.29253 47.731751 
L 347.454098 45.915493 
L 348.515422 45.365889 
L 349.571078 44.691489 
L 350.610018 43.758898 
L 354.636678 41.06814 
L 358.483793 37.344673 
L 360.34329 36.355173 
L 362.163269 35.185224 
L 367.407077 31.232132 
L 369.914688 30.112752 
L 372.350024 29.629696 
L 374.71573 29.187088 
L 375.490958 29.292045 
L 377.022964 29.082368 
L 378.527822 29.137766 
L 379.269451 28.926602 
L 380.005173 29.155237 
L 380.733528 28.995555 
L 381.454027 29.059376 
L 382.171741 28.846134 
L 382.883471 29.042777 
L 385.674486 28.881423 
L 390.991571 28.828876 
L 394.152565 28.151455 
L 395.99649 28.272439 
L 400.731354 29.046353 
L 405.758804 30.381908 
L 407.372143 30.91496 
L 408.432333 31.194645 
L 416.464821 33.813679 
L 419.757962 36.429648 
L 420.676381 36.861144 
L 424.688581 39.162414 
L 426.839703 40.440483 
L 427.263886 40.605393 
L 428.523903 41.346713 
L 429.764051 42.108935 
L 430.987062 42.764536 
L 431.794378 43.211102 
L 436.097008 45.588729 
L 438.727363 46.997565 
L 439.830578 47.573721 
L 441.278823 48.318442 
L 444.107249 49.663612 
L 446.506577 50.789384 
L 450.471245 53.256436 
L 450.792966 53.56999 
L 451.434911 53.932706 
L 453.016472 55.008638 
L 454.569236 56.007829 
L 456.397113 57.253305 
L 457.296085 57.784106 
L 457.890703 58.210696 
L 459.649974 59.514659 
L 461.940557 61.58517 
L 463.619515 61.968421 
L 465.26688 62.839771 
L 468.206474 66.908819 
L 470.538848 68.927831 
L 471.555918 69.837861 
L 472.56086 70.727357 
L 473.306633 70.985418 
L 475.022786 71.431911 
L 475.747949 71.595494 
L 475.988264 71.687339 
L 476.942794 72.710623 
L 477.887244 73.999162 
L 478.355529 74.900766 
L 481.338485 77.865604 
L 482.459227 79.28534 
L 483.12453 79.988935 
L 484.22179 81.221058 
L 487.642785 85.046884 
L 488.061148 84.36116 
L 488.476952 83.542543 
L 489.097343 83.018788 
L 489.303265 82.920291 
L 489.917958 82.412331 
L 490.122012 82.245112 
L 492.53207 84.296135 
L 493.516335 81.074717 
L 494.489542 78.127887 
L 494.876006 77.531534 
L 496.024578 77.93086 
L 496.970163 78.31112 
L 499.014436 79.029397 
L 500.471406 79.55256 
L 500.471406 79.55256 
" clip-path="url(#p4e062e66b1)" style="fill: none; stroke: #d55e00; stroke-width: 1.8; stroke-linecap: square"/>
   </g>
   <g id="line2d_38">
    <path d="M 45.211406 132.416195 
L 75.525963 133.64563 
L 97.959724 162.346094 
L 116.052922 178.695193 
L 130.176908 181.088233 
L 142.601742 169.910699 
L 153.500142 174.05516 
L 163.253543 156.100088 
L 171.931 168.80691 
L 179.688044 178.357249 
L 186.922259 179.354889 
L 193.710105 182.604604 
L 199.849422 186.179037 
L 205.5574 186.574498 
L 210.93433 186.392566 
L 216.005069 185.462253 
L 220.804894 177.154715 
L 225.362299 170.930406 
L 229.691815 168.967104 
L 233.784306 165.52134 
L 237.676632 163.491028 
L 241.443382 159.768912 
L 245.02681 163.996631 
L 248.470225 165.144582 
L 251.809113 160.425787 
L 255.016826 157.099679 
L 258.078721 158.899053 
L 261.036271 156.656355 
L 263.889452 153.139778 
L 266.678456 150.901445 
L 269.378406 150.035835 
L 271.994317 143.21294 
L 274.531798 140.83676 
L 276.989645 143.8783 
L 279.384083 142.343145 
L 281.699132 142.97025 
L 283.962336 141.797271 
L 286.173668 140.893572 
L 288.319101 139.631361 
L 290.419146 136.04759 
L 292.471758 133.02768 
L 294.484201 132.077878 
L 296.448815 130.456594 
L 298.361453 128.469492 
L 300.222868 127.625058 
L 302.046704 125.822341 
L 303.842835 126.584139 
L 305.601232 124.546007 
L 307.324202 123.718974 
L 309.016818 122.194827 
L 310.675769 121.055613 
L 312.304048 119.583667 
L 313.889908 117.206059 
L 315.453341 116.785378 
L 316.992637 115.825243 
L 318.494684 114.005691 
L 321.438916 110.101597 
L 322.877283 110.079304 
L 324.289318 110.871288 
L 325.672292 109.31816 
L 327.044695 108.373169 
L 328.388857 107.853318 
L 329.71306 106.866124 
L 331.018309 105.430583 
L 332.297746 105.692341 
L 333.567197 106.182194 
L 334.816382 106.474028 
L 336.041953 105.953431 
L 337.250324 105.094515 
L 338.444634 104.397666 
L 339.630801 104.778661 
L 340.796971 104.524677 
L 341.944482 103.956626 
L 343.077428 102.938354 
L 344.191981 102.287499 
L 345.29253 102.534723 
L 347.454098 102.501051 
L 348.515422 102.169761 
L 349.571078 102.195784 
L 350.610018 102.526952 
L 351.631772 102.636996 
L 353.647296 102.083371 
L 355.609491 101.342861 
L 356.577713 101.232633 
L 357.538777 101.391865 
L 359.417828 101.84558 
L 361.257988 101.935111 
L 364.824973 101.858174 
L 366.553124 102.101572 
L 368.251006 102.527157 
L 369.914688 102.05687 
L 370.733564 102.352395 
L 373.145934 102.908869 
L 373.934446 103.221495 
L 374.71573 103.314672 
L 377.022964 103.86533 
L 377.778583 102.924775 
L 379.269451 101.870922 
L 380.005173 101.835564 
L 380.733528 102.143341 
L 381.454027 102.206977 
L 382.883471 102.593617 
L 383.588675 102.728264 
L 384.289369 103.010763 
L 384.984436 103.080446 
L 385.674486 103.390907 
L 386.354677 103.469236 
L 387.029668 103.788472 
L 387.702372 103.872796 
L 389.689181 104.649605 
L 390.991571 104.931281 
L 394.771325 106.51394 
L 395.386254 106.903802 
L 395.99649 107.127736 
L 398.985843 108.74248 
L 400.731354 109.671385 
L 403.561406 111.287094 
L 405.758804 112.65083 
L 406.83717 113.317771 
L 409.479095 115.463174 
L 415.500641 120.016728 
L 415.983556 120.494926 
L 416.464821 120.685016 
L 416.943907 121.023325 
L 417.418641 121.198467 
L 417.890823 121.619308 
L 418.362518 121.862324 
L 419.295266 122.532883 
L 422.033888 124.337263 
L 423.813119 126.418045 
L 424.688581 127.437054 
L 425.122422 127.418486 
L 425.985648 127.625452 
L 426.839703 127.872807 
L 429.352288 128.861362 
L 430.581441 129.381344 
L 432.193797 130.266065 
L 433.3834 130.910682 
L 434.944371 132.331805 
L 438.727363 135.882014 
L 441.278823 138.280927 
L 441.637747 138.4452 
L 443.409343 140.259602 
L 446.506577 143.977037 
L 447.180496 144.819748 
L 449.496781 147.692197 
L 451.753085 150.718974 
L 455.182811 151.170959 
L 455.487933 151.098697 
L 456.095129 150.685848 
L 456.997461 150.368933 
L 457.890703 149.794946 
L 458.481101 149.563993 
L 458.775057 149.306629 
L 459.359355 149.104625 
L 459.939614 148.712075 
L 460.516361 148.460554 
L 461.37361 147.985103 
L 461.65793 147.879382 
L 462.503994 148.244079 
L 462.784466 148.404528 
L 463.063608 147.930401 
L 463.896411 147.322457 
L 464.172278 147.118318 
L 464.447075 146.742115 
L 464.721309 146.640617 
L 465.26688 146.069163 
L 466.346963 145.164346 
L 467.149206 144.457668 
L 468.206474 145.027649 
L 468.991485 145.518941 
L 469.509709 145.363603 
L 470.282671 144.793181 
L 471.048693 144.355708 
L 471.555918 143.973615 
L 471.808337 144.182977 
L 472.56086 145.408007 
L 473.553863 146.71338 
L 473.800666 146.571772 
L 475.265205 148.123636 
L 476.2277 149.321329 
L 476.705089 149.058554 
L 477.652226 148.545528 
L 478.821518 149.565518 
L 481.788552 146.406974 
L 482.903183 146.304859 
L 483.34511 145.067822 
L 483.565092 144.308463 
L 483.784712 144.231706 
L 484.22179 143.777257 
L 484.439595 143.766757 
L 485.735423 144.977726 
L 486.800227 146.591125 
L 487.222545 146.732072 
L 487.642785 146.754889 
L 488.061148 147.562562 
L 489.713589 151.080676 
L 490.528367 149.521151 
L 490.730912 149.747305 
L 491.335593 152.098934 
L 492.926816 151.394479 
L 493.123858 151.230618 
L 493.711953 150.309161 
L 494.10174 150.23621 
L 494.876006 150.049815 
L 495.260341 150.283096 
L 496.214539 150.891474 
L 497.719004 151.793071 
L 498.091122 151.567755 
L 498.276607 151.443639 
L 498.461644 151.460146 
L 499.927912 150.317006 
L 500.471406 150.009802 
L 500.471406 150.009802 
" clip-path="url(#p4e062e66b1)" style="fill: none; stroke: #0072b2; stroke-width: 1.9; stroke-linecap: square"/>
   </g>
   <g id="patch_5">
    <path d="M 45.211406 191.644035 
L 45.211406 7.366351 
" style="fill: none; stroke: #000000; stroke-width: 0.8; stroke-linejoin: miter; stroke-linecap: square"/>
   </g>
   <g id="patch_6">
    <path d="M 45.211406 191.644035 
L 500.471406 191.644035 
" style="fill: none; stroke: #000000; stroke-width: 0.8; stroke-linejoin: miter; stroke-linecap: square"/>
   </g>
   <g id="text_11">
    <text style="font-size: 7.2px; font-family: 'Arial'; text-anchor: middle; fill: #6a6a6a" x="111.257886" y="12.52575" transform="rotate(-0 111.257886 12.52575)">low</text>
   </g>
   <g id="text_12">
    <text style="font-size: 7.2px; font-family: 'Arial'; text-anchor: middle; fill: #6a6a6a" x="261.890204" y="12.52575" transform="rotate(-0 261.890204 12.52575)">mid</text>
   </g>
   <g id="text_13">
    <text style="font-size: 7.2px; font-family: 'Arial'; text-anchor: middle; fill: #6a6a6a" x="376.296525" y="12.441375" transform="rotate(-0 376.296525 12.441375)">focus high</text>
   </g>
   <g id="text_14">
    <text style="font-size: 7.2px; font-family: 'Arial'; text-anchor: middle; fill: #6a6a6a" x="453.294207" y="12.52575" transform="rotate(-0 453.294207 12.52575)">tail</text>
   </g>
   <g id="legend_1">
    <g id="line2d_39">
     <path d="M 51.961406 16.859711 
L 60.961406 16.859711 
L 69.961406 16.859711 
" style="fill: none; stroke: #d55e00; stroke-width: 1.8; stroke-linecap: square"/>
    </g>
    <g id="text_15">
     <text style="font-size: 7.5px; font-family: 'Arial'; text-anchor: start" x="75.961406" y="19.484711" transform="rotate(-0 75.961406 19.484711)">Sobol baseline</text>
    </g>
    <g id="line2d_40">
     <path d="M 136.412578 16.859711 
L 145.412578 16.859711 
L 154.412578 16.859711 
" style="fill: none; stroke: #0072b2; stroke-width: 1.9; stroke-linecap: square"/>
    </g>
    <g id="text_16">
     <text style="font-size: 7.5px; font-family: 'Arial'; text-anchor: start" x="160.412578" y="19.484711" transform="rotate(-0 160.412578 19.484711)">This method</text>
    </g>
   </g>
  </g>
 </g>
 <defs>
  <clipPath id="p4e062e66b1">
   <rect x="45.211406" y="7.366351" width="455.26" height="184.277684"/>
  </clipPath>
 </defs>
</svg>
