<?xml version="1.0" encoding="utf-8" standalone="no"?>
<!DOCTYPE svg PUBLIC "-//W3C//DTD SVG 1.1//EN"
  "http://www.w3.org/Graphics/SVG/1.1/DTD/svg11.dtd">
<svg xmlns:xlink="http://www.w3.org/1999/xlink" width="537.6301pt" height="208.974447pt" viewBox="0 0 537.6301 208.974447" xmlns="http://www.w3.org/2000/svg" version="1.1">
 <metadata>
  <rdf:RDF xmlns:dc="http://purl.org/dc/elements/1.1/" xmlns:cc="http://creativecommons.org/ns#" xmlns:rdf="http://www.w3.org/1999/02/22-rdf-syntax-ns#">
   <cc:Work>
    <dc:type rdf:resource="http://purl.org/dc/dcmitype/StillImage"/>
    <dc:date>2026-07-02T02:50:09.166062</dc:date>
    <dc:format>image/svg+xml</dc:format>
    <dc:creator>
     <cc:Agent>
      <dc:title>Matplotlib v3.10.8, https://matplotlib.org/</dc:title>
     </cc:Agent>
    </dc:creator>
   </cc:Work>
  </rdf:RDF>
 </metadata>
 <defs>
  <style type="text/css">*{stroke-linejoin: round; stroke-linecap: butt}</style>
 </defs>
 <g id="figure_1">
  <g id="patch_1">
   <path d="M 0 208.974447 
L 537.6301 208.974447 
L 537.6301 0 
L 0 0 
z
" style="fill: #ffffff"/>
  </g>
  <g id="axes_1">
   <g id="patch_2">
    <path d="M 56.371844 155.198426 
L 170.9802 155.198426 
L 170.9802 20.038594 
L 56.371844 20.038594 
z
" style="fill: #ffffff"/>
   </g>
   <g id="FillBetweenPolyCollection_1">
    <defs>
     <path id="m209c67d325" d="M 69.595885 -130.886037 
L 69.595885 -81.795609 
L 91.635953 -59.91965 
L 113.676022 -77.2522 
L 135.716091 -71.980996 
L 157.756159 -64.675936 
L 157.756159 -160.024986 
L 157.756159 -160.024986 
L 135.716091 -154.154093 
L 113.676022 -182.792225 
L 91.635953 -141.258797 
L 69.595885 -130.886037 
z
"/>
    </defs>
    <g clip-path="url(#p41531e6ac6)">
     <use xlink:href="#m209c67d325" x="0" y="208.974447" style="fill: #2a6fbb; fill-opacity: 0.18"/>
    </g>
   </g>
   <g id="matplotlib.axis_1">
    <g id="xtick_1">
     <g id="line2d_1">
      <defs>
       <path id="mf8652ebcb2" d="M 0 0 
L 0 3.5 
" style="stroke: #000000; stroke-width: 0.8"/>
      </defs>
      <g>
       <use xlink:href="#mf8652ebcb2" x="58.575851" y="155.198426" style="stroke: #000000; stroke-width: 0.8"/>
      </g>
     </g>
     <g id="text_1">
      <!-- 0.00 -->
      <g transform="translate(50.226241 167.897254) scale(0.075 -0.075)">
       <defs>
        <path id="DejaVuSans-30" d="M 2034 4250 
Q 1547 4250 1301 3770 
Q 1056 3291 1056 2328 
Q 1056 1369 1301 889 
Q 1547 409 2034 409 
Q 2525 409 2770 889 
Q 3016 1369 3016 2328 
Q 3016 3291 2770 3770 
Q 2525 4250 2034 4250 
z
M 2034 4750 
Q 2819 4750 3233 4129 
Q 3647 3509 3647 2328 
Q 3647 1150 3233 529 
Q 2819 -91 2034 -91 
Q 1250 -91 836 529 
Q 422 1150 422 2328 
Q 422 3509 836 4129 
Q 1250 4750 2034 4750 
z
" transform="scale(0.015625)"/>
        <path id="DejaVuSans-2e" d="M 684 794 
L 1344 794 
L 1344 0 
L 684 0 
L 684 794 
z
" transform="scale(0.015625)"/>
       </defs>
       <use xlink:href="#DejaVuSans-30"/>
       <use xlink:href="#DejaVuSans-2e" transform="translate(63.623047 0)"/>
       <use xlink:href="#DejaVuSans-30" transform="translate(95.410156 0)"/>
       <use xlink:href="#DejaVuSans-30" transform="translate(159.033203 0)"/>
      </g>
     </g>
    </g>
    <g id="xtick_2">
     <g id="line2d_2">
      <g>
       <use xlink:href="#mf8652ebcb2" x="86.125936" y="155.198426" style="stroke: #000000; stroke-width: 0.8"/>
      </g>
     </g>
     <g id="text_2">
      <!-- 0.25 -->
      <g transform="translate(77.776327 167.897254) scale(0.075 -0.075)">
       <defs>
        <path id="DejaVuSans-32" d="M 1228 531 
L 3431 531 
L 3431 0 
L 469 0 
L 469 531 
Q 828 903 1448 1529 
Q 2069 2156 2228 2338 
Q 2531 2678 2651 2914 
Q 2772 3150 2772 3378 
Q 2772 3750 2511 3984 
Q 2250 4219 1831 4219 
Q 1534 4219 1204 4116 
Q 875 4013 500 3803 
L 500 4441 
Q 881 4594 1212 4672 
Q 1544 4750 1819 4750 
Q 2544 4750 2975 4387 
Q 3406 4025 3406 3419 
Q 3406 3131 3298 2873 
Q 3191 2616 2906 2266 
Q 2828 2175 2409 1742 
Q 1991 1309 1228 531 
z
" transform="scale(0.015625)"/>
        <path id="DejaVuSans-35" d="M 691 4666 
L 3169 4666 
L 3169 4134 
L 1269 4134 
L 1269 2991 
Q 1406 3038 1543 3061 
Q 1681 3084 1819 3084 
Q 2600 3084 3056 2656 
Q 3513 2228 3513 1497 
Q 3513 744 3044 326 
Q 2575 -91 1722 -91 
Q 1428 -91 1123 -41 
Q 819 9 494 109 
L 494 744 
Q 775 591 1075 516 
Q 1375 441 1709 441 
Q 2250 441 2565 725 
Q 2881 1009 2881 1497 
Q 2881 1984 2565 2268 
Q 2250 2553 1709 2553 
Q 1456 2553 1204 2497 
Q 953 2441 691 2322 
L 691 4666 
z
" transform="scale(0.015625)"/>
       </defs>
       <use xlink:href="#DejaVuSans-30"/>
       <use xlink:href="#DejaVuSans-2e" transform="translate(63.623047 0)"/>
       <use xlink:href="#DejaVuSans-32" transform="translate(95.410156 0)"/>
       <use xlink:href="#DejaVuSans-35" transform="translate(159.033203 0)"/>
      </g>
     </g>
    </g>
    <g id="xtick_3">
     <g id="line2d_3">
      <g>
       <use xlink:href="#mf8652ebcb2" x="113.676022" y="155.198426" style="stroke: #000000; stroke-width: 0.8"/>
      </g>
     </g>
     <g id="text_3">
      <!-- 0.50 -->
      <g transform="translate(105.326413 167.897254) scale(0.075 -0.075)">
       <use xlink:href="#DejaVuSans-30"/>
       <use xlink:href="#DejaVuSans-2e" transform="translate(63.623047 0)"/>
       <use xlink:href="#DejaVuSans-35" transform="translate(95.410156 0)"/>
       <use xlink:href="#DejaVuSans-30" transform="translate(159.033203 0)"/>
      </g>
     </g>
    </g>
    <g id="xtick_4">
     <g id="line2d_4">
      <g>
       <use xlink:href="#mf8652ebcb2" x="141.226108" y="155.198426" style="stroke: #000000; stroke-width: 0.8"/>
      </g>
     </g>
     <g id="text_4">
      <!-- 0.75 -->
      <g transform="translate(132.876498 167.897254) scale(0.075 -0.075)">
       <defs>
        <path id="DejaVuSans-37" d="M 525 4666 
L 3525 4666 
L 3525 4397 
L 1831 0 
L 1172 0 
L 2766 4134 
L 525 4134 
L 525 4666 
z
" transform="scale(0.015625)"/>
       </defs>
       <use xlink:href="#DejaVuSans-30"/>
       <use xlink:href="#DejaVuSans-2e" transform="translate(63.623047 0)"/>
       <use xlink:href="#DejaVuSans-37" transform="translate(95.410156 0)"/>
       <use xlink:href="#DejaVuSans-35" transform="translate(159.033203 0)"/>
      </g>
     </g>
    </g>
    <g id="xtick_5">
     <g id="line2d_5">
      <g>
       <use xlink:href="#mf8652ebcb2" x="168.776194" y="155.198426" style="stroke: #000000; stroke-width: 0.8"/>
      </g>
     </g>
     <g id="text_5">
      <!-- 1.00 -->
      <g transform="translate(160.426584 167.897254) scale(0.075 -0.075)">
       <defs>
        <path id="DejaVuSans-31" d="M 794 531 
L 1825 531 
L 1825 4091 
L 703 3866 
L 703 4441 
L 1819 4666 
L 2450 4666 
L 2450 531 
L 3481 531 
L 3481 0 
L 794 0 
L 794 531 
z
" transform="scale(0.015625)"/>
       </defs>
       <use xlink:href="#DejaVuSans-31"/>
       <use xlink:href="#DejaVuSans-2e" transform="translate(63.623047 0)"/>
       <use xlink:href="#DejaVuSans-30" transform="translate(95.410156 0)"/>
       <use xlink:href="#DejaVuSans-30" transform="translate(159.033203 0)"/>
      </g>
     </g>
    </g>
    <g id="text_6">
     <!-- KUN bias-field quantile -->
     <g transform="translate(68.122897 179.53577) scale(0.08 -0.08)">
      <defs>
       <path id="DejaVuSans-4b" d="M 628 4666 
L 1259 4666 
L 1259 2694 
L 3353 4666 
L 4166 4666 
L 1850 2491 
L 4331 0 
L 3500 0 
L 1259 2247 
L 1259 0 
L 628 0 
L 628 4666 
z
" transform="scale(0.015625)"/>
       <path id="DejaVuSans-55" d="M 556 4666 
L 1191 4666 
L 1191 1831 
Q 1191 1081 1462 751 
Q 1734 422 2344 422 
Q 2950 422 3222 751 
Q 3494 1081 3494 1831 
L 3494 4666 
L 4128 4666 
L 4128 1753 
Q 4128 841 3676 375 
Q 3225 -91 2344 -91 
Q 1459 -91 1007 375 
Q 556 841 556 1753 
L 556 4666 
z
" transform="scale(0.015625)"/>
       <path id="DejaVuSans-4e" d="M 628 4666 
L 1478 4666 
L 3547 763 
L 3547 4666 
L 4159 4666 
L 4159 0 
L 3309 0 
L 1241 3903 
L 1241 0 
L 628 0 
L 628 4666 
z
" transform="scale(0.015625)"/>
       <path id="DejaVuSans-20" transform="scale(0.015625)"/>
       <path id="DejaVuSans-62" d="M 3116 1747 
Q 3116 2381 2855 2742 
Q 2594 3103 2138 3103 
Q 1681 3103 1420 2742 
Q 1159 2381 1159 1747 
Q 1159 1113 1420 752 
Q 1681 391 2138 391 
Q 2594 391 2855 752 
Q 3116 1113 3116 1747 
z
M 1159 2969 
Q 1341 3281 1617 3432 
Q 1894 3584 2278 3584 
Q 2916 3584 3314 3078 
Q 3713 2572 3713 1747 
Q 3713 922 3314 415 
Q 2916 -91 2278 -91 
Q 1894 -91 1617 61 
Q 1341 213 1159 525 
L 1159 0 
L 581 0 
L 581 4863 
L 1159 4863 
L 1159 2969 
z
" transform="scale(0.015625)"/>
       <path id="DejaVuSans-69" d="M 603 3500 
L 1178 3500 
L 1178 0 
L 603 0 
L 603 3500 
z
M 603 4863 
L 1178 4863 
L 1178 4134 
L 603 4134 
L 603 4863 
z
" transform="scale(0.015625)"/>
       <path id="DejaVuSans-61" d="M 2194 1759 
Q 1497 1759 1228 1600 
Q 959 1441 959 1056 
Q 959 750 1161 570 
Q 1363 391 1709 391 
Q 2188 391 2477 730 
Q 2766 1069 2766 1631 
L 2766 1759 
L 2194 1759 
z
M 3341 1997 
L 3341 0 
L 2766 0 
L 2766 531 
Q 2569 213 2275 61 
Q 1981 -91 1556 -91 
Q 1019 -91 701 211 
Q 384 513 384 1019 
Q 384 1609 779 1909 
Q 1175 2209 1959 2209 
L 2766 2209 
L 2766 2266 
Q 2766 2663 2505 2880 
Q 2244 3097 1772 3097 
Q 1472 3097 1187 3025 
Q 903 2953 641 2809 
L 641 3341 
Q 956 3463 1253 3523 
Q 1550 3584 1831 3584 
Q 2591 3584 2966 3190 
Q 3341 2797 3341 1997 
z
" transform="scale(0.015625)"/>
       <path id="DejaVuSans-73" d="M 2834 3397 
L 2834 2853 
Q 2591 2978 2328 3040 
Q 2066 3103 1784 3103 
Q 1356 3103 1142 2972 
Q 928 2841 928 2578 
Q 928 2378 1081 2264 
Q 1234 2150 1697 2047 
L 1894 2003 
Q 2506 1872 2764 1633 
Q 3022 1394 3022 966 
Q 3022 478 2636 193 
Q 2250 -91 1575 -91 
Q 1294 -91 989 -36 
Q 684 19 347 128 
L 347 722 
Q 666 556 975 473 
Q 1284 391 1588 391 
Q 1994 391 2212 530 
Q 2431 669 2431 922 
Q 2431 1156 2273 1281 
Q 2116 1406 1581 1522 
L 1381 1569 
Q 847 1681 609 1914 
Q 372 2147 372 2553 
Q 372 3047 722 3315 
Q 1072 3584 1716 3584 
Q 2034 3584 2315 3537 
Q 2597 3491 2834 3397 
z
" transform="scale(0.015625)"/>
       <path id="DejaVuSans-2d" d="M 313 2009 
L 1997 2009 
L 1997 1497 
L 313 1497 
L 313 2009 
z
" transform="scale(0.015625)"/>
       <path id="DejaVuSans-66" d="M 2375 4863 
L 2375 4384 
L 1825 4384 
Q 1516 4384 1395 4259 
Q 1275 4134 1275 3809 
L 1275 3500 
L 2222 3500 
L 2222 3053 
L 1275 3053 
L 1275 0 
L 697 0 
L 697 3053 
L 147 3053 
L 147 3500 
L 697 3500 
L 697 3744 
Q 697 4328 969 4595 
Q 1241 4863 1831 4863 
L 2375 4863 
z
" transform="scale(0.015625)"/>
       <path id="DejaVuSans-65" d="M 3597 1894 
L 3597 1613 
L 953 1613 
Q 991 1019 1311 708 
Q 1631 397 2203 397 
Q 2534 397 2845 478 
Q 3156 559 3463 722 
L 3463 178 
Q 3153 47 2828 -22 
Q 2503 -91 2169 -91 
Q 1331 -91 842 396 
Q 353 884 353 1716 
Q 353 2575 817 3079 
Q 1281 3584 2069 3584 
Q 2775 3584 3186 3129 
Q 3597 2675 3597 1894 
z
M 3022 2063 
Q 3016 2534 2758 2815 
Q 2500 3097 2075 3097 
Q 1594 3097 1305 2825 
Q 1016 2553 972 2059 
L 3022 2063 
z
" transform="scale(0.015625)"/>
       <path id="DejaVuSans-6c" d="M 603 4863 
L 1178 4863 
L 1178 0 
L 603 0 
L 603 4863 
z
" transform="scale(0.015625)"/>
       <path id="DejaVuSans-64" d="M 2906 2969 
L 2906 4863 
L 3481 4863 
L 3481 0 
L 2906 0 
L 2906 525 
Q 2725 213 2448 61 
Q 2172 -91 1784 -91 
Q 1150 -91 751 415 
Q 353 922 353 1747 
Q 353 2572 751 3078 
Q 1150 3584 1784 3584 
Q 2172 3584 2448 3432 
Q 2725 3281 2906 2969 
z
M 947 1747 
Q 947 1113 1208 752 
Q 1469 391 1925 391 
Q 2381 391 2643 752 
Q 2906 1113 2906 1747 
Q 2906 2381 2643 2742 
Q 2381 3103 1925 3103 
Q 1469 3103 1208 2742 
Q 947 2381 947 1747 
z
" transform="scale(0.015625)"/>
       <path id="DejaVuSans-71" d="M 947 1747 
Q 947 1113 1208 752 
Q 1469 391 1925 391 
Q 2381 391 2643 752 
Q 2906 1113 2906 1747 
Q 2906 2381 2643 2742 
Q 2381 3103 1925 3103 
Q 1469 3103 1208 2742 
Q 947 2381 947 1747 
z
M 2906 525 
Q 2725 213 2448 61 
Q 2172 -91 1784 -91 
Q 1150 -91 751 415 
Q 353 922 353 1747 
Q 353 2572 751 3078 
Q 1150 3584 1784 3584 
Q 2172 3584 2448 3432 
Q 2725 3281 2906 2969 
L 2906 3500 
L 3481 3500 
L 3481 -1331 
L 2906 -1331 
L 2906 525 
z
" transform="scale(0.015625)"/>
       <path id="DejaVuSans-75" d="M 544 1381 
L 544 3500 
L 1119 3500 
L 1119 1403 
Q 1119 906 1312 657 
Q 1506 409 1894 409 
Q 2359 409 2629 706 
Q 2900 1003 2900 1516 
L 2900 3500 
L 3475 3500 
L 3475 0 
L 2900 0 
L 2900 538 
Q 2691 219 2414 64 
Q 2138 -91 1772 -91 
Q 1169 -91 856 284 
Q 544 659 544 1381 
z
M 1991 3584 
L 1991 3584 
z
" transform="scale(0.015625)"/>
       <path id="DejaVuSans-6e" d="M 3513 2113 
L 3513 0 
L 2938 0 
L 2938 2094 
Q 2938 2591 2744 2837 
Q 2550 3084 2163 3084 
Q 1697 3084 1428 2787 
Q 1159 2491 1159 1978 
L 1159 0 
L 581 0 
L 581 3500 
L 1159 3500 
L 1159 2956 
Q 1366 3272 1645 3428 
Q 1925 3584 2291 3584 
Q 2894 3584 3203 3211 
Q 3513 2838 3513 2113 
z
" transform="scale(0.015625)"/>
       <path id="DejaVuSans-74" d="M 1172 4494 
L 1172 3500 
L 2356 3500 
L 2356 3053 
L 1172 3053 
L 1172 1153 
Q 1172 725 1289 603 
Q 1406 481 1766 481 
L 2356 481 
L 2356 0 
L 1766 0 
Q 1100 0 847 248 
Q 594 497 594 1153 
L 594 3053 
L 172 3053 
L 172 3500 
L 594 3500 
L 594 4494 
L 1172 4494 
z
" transform="scale(0.015625)"/>
      </defs>
      <use xlink:href="#DejaVuSans-4b"/>
      <use xlink:href="#DejaVuSans-55" transform="translate(62.951172 0)"/>
      <use xlink:href="#DejaVuSans-4e" transform="translate(136.144531 0)"/>
      <use xlink:href="#DejaVuSans-20" transform="translate(210.949219 0)"/>
      <use xlink:href="#DejaVuSans-62" transform="translate(242.736328 0)"/>
      <use xlink:href="#DejaVuSans-69" transform="translate(306.212891 0)"/>
      <use xlink:href="#DejaVuSans-61" transform="translate(333.996094 0)"/>
      <use xlink:href="#DejaVuSans-73" transform="translate(395.275391 0)"/>
      <use xlink:href="#DejaVuSans-2d" transform="translate(447.375 0)"/>
      <use xlink:href="#DejaVuSans-66" transform="translate(483.458984 0)"/>
      <use xlink:href="#DejaVuSans-69" transform="translate(518.664062 0)"/>
      <use xlink:href="#DejaVuSans-65" transform="translate(546.447266 0)"/>
      <use xlink:href="#DejaVuSans-6c" transform="translate(607.970703 0)"/>
      <use xlink:href="#DejaVuSans-64" transform="translate(635.753906 0)"/>
      <use xlink:href="#DejaVuSans-20" transform="translate(699.230469 0)"/>
      <use xlink:href="#DejaVuSans-71" transform="translate(731.017578 0)"/>
      <use xlink:href="#DejaVuSans-75" transform="translate(794.494141 0)"/>
      <use xlink:href="#DejaVuSans-61" transform="translate(857.873047 0)"/>
      <use xlink:href="#DejaVuSans-6e" transform="translate(919.152344 0)"/>
      <use xlink:href="#DejaVuSans-74" transform="translate(982.53125 0)"/>
      <use xlink:href="#DejaVuSans-69" transform="translate(1021.740234 0)"/>
      <use xlink:href="#DejaVuSans-6c" transform="translate(1049.523438 0)"/>
      <use xlink:href="#DejaVuSans-65" transform="translate(1077.306641 0)"/>
     </g>
    </g>
   </g>
   <g id="matplotlib.axis_2">
    <g id="ytick_1">
     <g id="line2d_6">
      <path d="M 56.371844 146.907781 
L 170.9802 146.907781 
" clip-path="url(#p41531e6ac6)" style="fill: none; stroke: #d9d9d9; stroke-opacity: 0.75; stroke-width: 0.55; stroke-linecap: square"/>
     </g>
     <g id="line2d_7">
      <defs>
       <path id="mc7ae6412f9" d="M 0 0 
L -3.5 0 
" style="stroke: #000000; stroke-width: 0.8"/>
      </defs>
      <g>
       <use xlink:href="#mc7ae6412f9" x="56.371844" y="146.907781" style="stroke: #000000; stroke-width: 0.8"/>
      </g>
     </g>
     <g id="text_7">
      <!-- 0.005 -->
      <g transform="translate(27.90075 149.757195) scale(0.075 -0.075)">
       <use xlink:href="#DejaVuSans-30"/>
       <use xlink:href="#DejaVuSans-2e" transform="translate(63.623047 0)"/>
       <use xlink:href="#DejaVuSans-30" transform="translate(95.410156 0)"/>
       <use xlink:href="#DejaVuSans-30" transform="translate(159.033203 0)"/>
       <use xlink:href="#DejaVuSans-35" transform="translate(222.65625 0)"/>
      </g>
     </g>
    </g>
    <g id="ytick_2">
     <g id="line2d_8">
      <path d="M 56.371844 126.37234 
L 170.9802 126.37234 
" clip-path="url(#p41531e6ac6)" style="fill: none; stroke: #d9d9d9; stroke-opacity: 0.75; stroke-width: 0.55; stroke-linecap: square"/>
     </g>
     <g id="line2d_9">
      <g>
       <use xlink:href="#mc7ae6412f9" x="56.371844" y="126.37234" style="stroke: #000000; stroke-width: 0.8"/>
      </g>
     </g>
     <g id="text_8">
      <!-- 0.010 -->
      <g transform="translate(27.90075 129.221754) scale(0.075 -0.075)">
       <use xlink:href="#DejaVuSans-30"/>
       <use xlink:href="#DejaVuSans-2e" transform="translate(63.623047 0)"/>
       <use xlink:href="#DejaVuSans-30" transform="translate(95.410156 0)"/>
       <use xlink:href="#DejaVuSans-31" transform="translate(159.033203 0)"/>
       <use xlink:href="#DejaVuSans-30" transform="translate(222.65625 0)"/>
      </g>
     </g>
    </g>
    <g id="ytick_3">
     <g id="line2d_10">
      <path d="M 56.371844 105.836899 
L 170.9802 105.836899 
" clip-path="url(#p41531e6ac6)" style="fill: none; stroke: #d9d9d9; stroke-opacity: 0.75; stroke-width: 0.55; stroke-linecap: square"/>
     </g>
     <g id="line2d_11">
      <g>
       <use xlink:href="#mc7ae6412f9" x="56.371844" y="105.836899" style="stroke: #000000; stroke-width: 0.8"/>
      </g>
     </g>
     <g id="text_9">
      <!-- 0.015 -->
      <g transform="translate(27.90075 108.686313) scale(0.075 -0.075)">
       <use xlink:href="#DejaVuSans-30"/>
       <use xlink:href="#DejaVuSans-2e" transform="translate(63.623047 0)"/>
       <use xlink:href="#DejaVuSans-30" transform="translate(95.410156 0)"/>
       <use xlink:href="#DejaVuSans-31" transform="translate(159.033203 0)"/>
       <use xlink:href="#DejaVuSans-35" transform="translate(222.65625 0)"/>
      </g>
     </g>
    </g>
    <g id="ytick_4">
     <g id="line2d_12">
      <path d="M 56.371844 85.301458 
L 170.9802 85.301458 
" clip-path="url(#p41531e6ac6)" style="fill: none; stroke: #d9d9d9; stroke-opacity: 0.75; stroke-width: 0.55; stroke-linecap: square"/>
     </g>
     <g id="line2d_13">
      <g>
       <use xlink:href="#mc7ae6412f9" x="56.371844" y="85.301458" style="stroke: #000000; stroke-width: 0.8"/>
      </g>
     </g>
     <g id="text_10">
      <!-- 0.020 -->
      <g transform="translate(27.90075 88.150872) scale(0.075 -0.075)">
       <use xlink:href="#DejaVuSans-30"/>
       <use xlink:href="#DejaVuSans-2e" transform="translate(63.623047 0)"/>
       <use xlink:href="#DejaVuSans-30" transform="translate(95.410156 0)"/>
       <use xlink:href="#DejaVuSans-32" transform="translate(159.033203 0)"/>
       <use xlink:href="#DejaVuSans-30" transform="translate(222.65625 0)"/>
      </g>
     </g>
    </g>
    <g id="ytick_5">
     <g id="line2d_14">
      <path d="M 56.371844 64.766017 
L 170.9802 64.766017 
" clip-path="url(#p41531e6ac6)" style="fill: none; stroke: #d9d9d9; stroke-opacity: 0.75; stroke-width: 0.55; stroke-linecap: square"/>
     </g>
     <g id="line2d_15">
      <g>
       <use xlink:href="#mc7ae6412f9" x="56.371844" y="64.766017" style="stroke: #000000; stroke-width: 0.8"/>
      </g>
     </g>
     <g id="text_11">
      <!-- 0.025 -->
      <g transform="translate(27.90075 67.615431) scale(0.075 -0.075)">
       <use xlink:href="#DejaVuSans-30"/>
       <use xlink:href="#DejaVuSans-2e" transform="translate(63.623047 0)"/>
       <use xlink:href="#DejaVuSans-30" transform="translate(95.410156 0)"/>
       <use xlink:href="#DejaVuSans-32" transform="translate(159.033203 0)"/>
       <use xlink:href="#DejaVuSans-35" transform="translate(222.65625 0)"/>
      </g>
     </g>
    </g>
    <g id="ytick_6">
     <g id="line2d_16">
      <path d="M 56.371844 44.230576 
L 170.9802 44.230576 
" clip-path="url(#p41531e6ac6)" style="fill: none; stroke: #d9d9d9; stroke-opacity: 0.75; stroke-width: 0.55; stroke-linecap: square"/>
     </g>
     <g id="line2d_17">
      <g>
       <use xlink:href="#mc7ae6412f9" x="56.371844" y="44.230576" style="stroke: #000000; stroke-width: 0.8"/>
      </g>
     </g>
     <g id="text_12">
      <!-- 0.030 -->
      <g transform="translate(27.90075 47.07999) scale(0.075 -0.075)">
       <defs>
        <path id="DejaVuSans-33" d="M 2597 2516 
Q 3050 2419 3304 2112 
Q 3559 1806 3559 1356 
Q 3559 666 3084 287 
Q 2609 -91 1734 -91 
Q 1441 -91 1130 -33 
Q 819 25 488 141 
L 488 750 
Q 750 597 1062 519 
Q 1375 441 1716 441 
Q 2309 441 2620 675 
Q 2931 909 2931 1356 
Q 2931 1769 2642 2001 
Q 2353 2234 1838 2234 
L 1294 2234 
L 1294 2753 
L 1863 2753 
Q 2328 2753 2575 2939 
Q 2822 3125 2822 3475 
Q 2822 3834 2567 4026 
Q 2313 4219 1838 4219 
Q 1578 4219 1281 4162 
Q 984 4106 628 3988 
L 628 4550 
Q 988 4650 1302 4700 
Q 1616 4750 1894 4750 
Q 2613 4750 3031 4423 
Q 3450 4097 3450 3541 
Q 3450 3153 3228 2886 
Q 3006 2619 2597 2516 
z
" transform="scale(0.015625)"/>
       </defs>
       <use xlink:href="#DejaVuSans-30"/>
       <use xlink:href="#DejaVuSans-2e" transform="translate(63.623047 0)"/>
       <use xlink:href="#DejaVuSans-30" transform="translate(95.410156 0)"/>
       <use xlink:href="#DejaVuSans-33" transform="translate(159.033203 0)"/>
       <use xlink:href="#DejaVuSans-30" transform="translate(222.65625 0)"/>
      </g>
     </g>
    </g>
    <g id="ytick_7">
     <g id="line2d_18">
      <path d="M 56.371844 23.695135 
L 170.9802 23.695135 
" clip-path="url(#p41531e6ac6)" style="fill: none; stroke: #d9d9d9; stroke-opacity: 0.75; stroke-width: 0.55; stroke-linecap: square"/>
     </g>
     <g id="line2d_19">
      <g>
       <use xlink:href="#mc7ae6412f9" x="56.371844" y="23.695135" style="stroke: #000000; stroke-width: 0.8"/>
      </g>
     </g>
     <g id="text_13">
      <!-- 0.035 -->
      <g transform="translate(27.90075 26.544549) scale(0.075 -0.075)">
       <use xlink:href="#DejaVuSans-30"/>
       <use xlink:href="#DejaVuSans-2e" transform="translate(63.623047 0)"/>
       <use xlink:href="#DejaVuSans-30" transform="translate(95.410156 0)"/>
       <use xlink:href="#DejaVuSans-33" transform="translate(159.033203 0)"/>
       <use xlink:href="#DejaVuSans-35" transform="translate(222.65625 0)"/>
      </g>
     </g>
    </g>
    <g id="text_14">
     <!-- Sobol32 Quijote -->
     <g transform="translate(13.27875 119.447885) rotate(-90) scale(0.08 -0.08)">
      <defs>
       <path id="DejaVuSans-53" d="M 3425 4513 
L 3425 3897 
Q 3066 4069 2747 4153 
Q 2428 4238 2131 4238 
Q 1616 4238 1336 4038 
Q 1056 3838 1056 3469 
Q 1056 3159 1242 3001 
Q 1428 2844 1947 2747 
L 2328 2669 
Q 3034 2534 3370 2195 
Q 3706 1856 3706 1288 
Q 3706 609 3251 259 
Q 2797 -91 1919 -91 
Q 1588 -91 1214 -16 
Q 841 59 441 206 
L 441 856 
Q 825 641 1194 531 
Q 1563 422 1919 422 
Q 2459 422 2753 634 
Q 3047 847 3047 1241 
Q 3047 1584 2836 1778 
Q 2625 1972 2144 2069 
L 1759 2144 
Q 1053 2284 737 2584 
Q 422 2884 422 3419 
Q 422 4038 858 4394 
Q 1294 4750 2059 4750 
Q 2388 4750 2728 4690 
Q 3069 4631 3425 4513 
z
" transform="scale(0.015625)"/>
       <path id="DejaVuSans-6f" d="M 1959 3097 
Q 1497 3097 1228 2736 
Q 959 2375 959 1747 
Q 959 1119 1226 758 
Q 1494 397 1959 397 
Q 2419 397 2687 759 
Q 2956 1122 2956 1747 
Q 2956 2369 2687 2733 
Q 2419 3097 1959 3097 
z
M 1959 3584 
Q 2709 3584 3137 3096 
Q 3566 2609 3566 1747 
Q 3566 888 3137 398 
Q 2709 -91 1959 -91 
Q 1206 -91 779 398 
Q 353 888 353 1747 
Q 353 2609 779 3096 
Q 1206 3584 1959 3584 
z
" transform="scale(0.015625)"/>
       <path id="DejaVuSans-51" d="M 2522 4238 
Q 1834 4238 1429 3725 
Q 1025 3213 1025 2328 
Q 1025 1447 1429 934 
Q 1834 422 2522 422 
Q 3209 422 3611 934 
Q 4013 1447 4013 2328 
Q 4013 3213 3611 3725 
Q 3209 4238 2522 4238 
z
M 3406 84 
L 4238 -825 
L 3475 -825 
L 2784 -78 
Q 2681 -84 2626 -87 
Q 2572 -91 2522 -91 
Q 1538 -91 948 567 
Q 359 1225 359 2328 
Q 359 3434 948 4092 
Q 1538 4750 2522 4750 
Q 3503 4750 4090 4092 
Q 4678 3434 4678 2328 
Q 4678 1516 4351 937 
Q 4025 359 3406 84 
z
" transform="scale(0.015625)"/>
       <path id="DejaVuSans-6a" d="M 603 3500 
L 1178 3500 
L 1178 -63 
Q 1178 -731 923 -1031 
Q 669 -1331 103 -1331 
L -116 -1331 
L -116 -844 
L 38 -844 
Q 366 -844 484 -692 
Q 603 -541 603 -63 
L 603 3500 
z
M 603 4863 
L 1178 4863 
L 1178 4134 
L 603 4134 
L 603 4863 
z
" transform="scale(0.015625)"/>
      </defs>
      <use xlink:href="#DejaVuSans-53"/>
      <use xlink:href="#DejaVuSans-6f" transform="translate(63.476562 0)"/>
      <use xlink:href="#DejaVuSans-62" transform="translate(124.658203 0)"/>
      <use xlink:href="#DejaVuSans-6f" transform="translate(188.134766 0)"/>
      <use xlink:href="#DejaVuSans-6c" transform="translate(249.316406 0)"/>
      <use xlink:href="#DejaVuSans-33" transform="translate(277.099609 0)"/>
      <use xlink:href="#DejaVuSans-32" transform="translate(340.722656 0)"/>
      <use xlink:href="#DejaVuSans-20" transform="translate(404.345703 0)"/>
      <use xlink:href="#DejaVuSans-51" transform="translate(436.132812 0)"/>
      <use xlink:href="#DejaVuSans-75" transform="translate(514.84375 0)"/>
      <use xlink:href="#DejaVuSans-69" transform="translate(578.222656 0)"/>
      <use xlink:href="#DejaVuSans-6a" transform="translate(606.005859 0)"/>
      <use xlink:href="#DejaVuSans-6f" transform="translate(633.789062 0)"/>
      <use xlink:href="#DejaVuSans-74" transform="translate(694.970703 0)"/>
      <use xlink:href="#DejaVuSans-65" transform="translate(734.179688 0)"/>
     </g>
     <!-- per-sample p68 -->
     <g transform="translate(22.237 118.895385) rotate(-90) scale(0.08 -0.08)">
      <defs>
       <path id="DejaVuSans-70" d="M 1159 525 
L 1159 -1331 
L 581 -1331 
L 581 3500 
L 1159 3500 
L 1159 2969 
Q 1341 3281 1617 3432 
Q 1894 3584 2278 3584 
Q 2916 3584 3314 3078 
Q 3713 2572 3713 1747 
Q 3713 922 3314 415 
Q 2916 -91 2278 -91 
Q 1894 -91 1617 61 
Q 1341 213 1159 525 
z
M 3116 1747 
Q 3116 2381 2855 2742 
Q 2594 3103 2138 3103 
Q 1681 3103 1420 2742 
Q 1159 2381 1159 1747 
Q 1159 1113 1420 752 
Q 1681 391 2138 391 
Q 2594 391 2855 752 
Q 3116 1113 3116 1747 
z
" transform="scale(0.015625)"/>
       <path id="DejaVuSans-72" d="M 2631 2963 
Q 2534 3019 2420 3045 
Q 2306 3072 2169 3072 
Q 1681 3072 1420 2755 
Q 1159 2438 1159 1844 
L 1159 0 
L 581 0 
L 581 3500 
L 1159 3500 
L 1159 2956 
Q 1341 3275 1631 3429 
Q 1922 3584 2338 3584 
Q 2397 3584 2469 3576 
Q 2541 3569 2628 3553 
L 2631 2963 
z
" transform="scale(0.015625)"/>
       <path id="DejaVuSans-6d" d="M 3328 2828 
Q 3544 3216 3844 3400 
Q 4144 3584 4550 3584 
Q 5097 3584 5394 3201 
Q 5691 2819 5691 2113 
L 5691 0 
L 5113 0 
L 5113 2094 
Q 5113 2597 4934 2840 
Q 4756 3084 4391 3084 
Q 3944 3084 3684 2787 
Q 3425 2491 3425 1978 
L 3425 0 
L 2847 0 
L 2847 2094 
Q 2847 2600 2669 2842 
Q 2491 3084 2119 3084 
Q 1678 3084 1418 2786 
Q 1159 2488 1159 1978 
L 1159 0 
L 581 0 
L 581 3500 
L 1159 3500 
L 1159 2956 
Q 1356 3278 1631 3431 
Q 1906 3584 2284 3584 
Q 2666 3584 2933 3390 
Q 3200 3197 3328 2828 
z
" transform="scale(0.015625)"/>
       <path id="DejaVuSans-36" d="M 2113 2584 
Q 1688 2584 1439 2293 
Q 1191 2003 1191 1497 
Q 1191 994 1439 701 
Q 1688 409 2113 409 
Q 2538 409 2786 701 
Q 3034 994 3034 1497 
Q 3034 2003 2786 2293 
Q 2538 2584 2113 2584 
z
M 3366 4563 
L 3366 3988 
Q 3128 4100 2886 4159 
Q 2644 4219 2406 4219 
Q 1781 4219 1451 3797 
Q 1122 3375 1075 2522 
Q 1259 2794 1537 2939 
Q 1816 3084 2150 3084 
Q 2853 3084 3261 2657 
Q 3669 2231 3669 1497 
Q 3669 778 3244 343 
Q 2819 -91 2113 -91 
Q 1303 -91 875 529 
Q 447 1150 447 2328 
Q 447 3434 972 4092 
Q 1497 4750 2381 4750 
Q 2619 4750 2861 4703 
Q 3103 4656 3366 4563 
z
" transform="scale(0.015625)"/>
       <path id="DejaVuSans-38" d="M 2034 2216 
Q 1584 2216 1326 1975 
Q 1069 1734 1069 1313 
Q 1069 891 1326 650 
Q 1584 409 2034 409 
Q 2484 409 2743 651 
Q 3003 894 3003 1313 
Q 3003 1734 2745 1975 
Q 2488 2216 2034 2216 
z
M 1403 2484 
Q 997 2584 770 2862 
Q 544 3141 544 3541 
Q 544 4100 942 4425 
Q 1341 4750 2034 4750 
Q 2731 4750 3128 4425 
Q 3525 4100 3525 3541 
Q 3525 3141 3298 2862 
Q 3072 2584 2669 2484 
Q 3125 2378 3379 2068 
Q 3634 1759 3634 1313 
Q 3634 634 3220 271 
Q 2806 -91 2034 -91 
Q 1263 -91 848 271 
Q 434 634 434 1313 
Q 434 1759 690 2068 
Q 947 2378 1403 2484 
z
M 1172 3481 
Q 1172 3119 1398 2916 
Q 1625 2713 2034 2713 
Q 2441 2713 2670 2916 
Q 2900 3119 2900 3481 
Q 2900 3844 2670 4047 
Q 2441 4250 2034 4250 
Q 1625 4250 1398 4047 
Q 1172 3844 1172 3481 
z
" transform="scale(0.015625)"/>
      </defs>
      <use xlink:href="#DejaVuSans-70"/>
      <use xlink:href="#DejaVuSans-65" transform="translate(63.476562 0)"/>
      <use xlink:href="#DejaVuSans-72" transform="translate(125 0)"/>
      <use xlink:href="#DejaVuSans-2d" transform="translate(159.738281 0)"/>
      <use xlink:href="#DejaVuSans-73" transform="translate(195.822266 0)"/>
      <use xlink:href="#DejaVuSans-61" transform="translate(247.921875 0)"/>
      <use xlink:href="#DejaVuSans-6d" transform="translate(309.201172 0)"/>
      <use xlink:href="#DejaVuSans-70" transform="translate(406.613281 0)"/>
      <use xlink:href="#DejaVuSans-6c" transform="translate(470.089844 0)"/>
      <use xlink:href="#DejaVuSans-65" transform="translate(497.873047 0)"/>
      <use xlink:href="#DejaVuSans-20" transform="translate(559.396484 0)"/>
      <use xlink:href="#DejaVuSans-70" transform="translate(591.183594 0)"/>
      <use xlink:href="#DejaVuSans-36" transform="translate(654.660156 0)"/>
      <use xlink:href="#DejaVuSans-38" transform="translate(718.283203 0)"/>
     </g>
    </g>
   </g>
   <g id="line2d_20">
    <path d="M 69.595885 82.698508 
L 91.635953 111.753691 
L 113.676022 97.631224 
L 135.716091 119.471699 
L 157.756159 110.488409 
" clip-path="url(#p41531e6ac6)" style="fill: none; stroke: #2a6fbb; stroke-width: 1.6; stroke-linecap: square"/>
    <defs>
     <path id="mcbfa4515ee" d="M 0 1.7 
C 0.450845 1.7 0.883286 1.520877 1.202082 1.202082 
C 1.520877 0.883286 1.7 0.450845 1.7 0 
C 1.7 -0.450845 1.520877 -0.883286 1.202082 -1.202082 
C 0.883286 -1.520877 0.450845 -1.7 0 -1.7 
C -0.450845 -1.7 -0.883286 -1.520877 -1.202082 -1.202082 
C -1.520877 -0.883286 -1.7 -0.450845 -1.7 0 
C -1.7 0.450845 -1.520877 0.883286 -1.202082 1.202082 
C -0.883286 1.520877 -0.450845 1.7 0 1.7 
z
" style="stroke: #2a6fbb"/>
    </defs>
    <g clip-path="url(#p41531e6ac6)">
     <use xlink:href="#mcbfa4515ee" x="69.595885" y="82.698508" style="fill: #2a6fbb; stroke: #2a6fbb"/>
     <use xlink:href="#mcbfa4515ee" x="91.635953" y="111.753691" style="fill: #2a6fbb; stroke: #2a6fbb"/>
     <use xlink:href="#mcbfa4515ee" x="113.676022" y="97.631224" style="fill: #2a6fbb; stroke: #2a6fbb"/>
     <use xlink:href="#mcbfa4515ee" x="135.716091" y="119.471699" style="fill: #2a6fbb; stroke: #2a6fbb"/>
     <use xlink:href="#mcbfa4515ee" x="157.756159" y="110.488409" style="fill: #2a6fbb; stroke: #2a6fbb"/>
    </g>
   </g>
   <g id="patch_3">
    <path d="M 56.371844 155.198426 
L 56.371844 20.038594 
" style="fill: none; stroke: #000000; stroke-width: 0.8; stroke-linejoin: miter; stroke-linecap: square"/>
   </g>
   <g id="patch_4">
    <path d="M 56.371844 155.198426 
L 170.9802 155.198426 
" style="fill: none; stroke: #000000; stroke-width: 0.8; stroke-linejoin: miter; stroke-linecap: square"/>
   </g>
   <g id="text_15">
    <!-- $\rho=-0.01$ -->
    <g style="fill: #555555" transform="translate(60.956178 32.859085) scale(0.08 -0.08)">
     <defs>
      <path id="DejaVuSans-Oblique-3c1" d="M 1203 2875 
Q 1453 3194 1981 3475 
Q 2188 3584 2756 3584 
Q 3394 3584 3694 3078 
Q 3994 2572 3834 1747 
Q 3672 922 3175 415 
Q 2678 -91 2041 -91 
Q 1656 -91 1409 63 
Q 1163 213 1044 525 
L 681 -1331 
L 103 -1331 
L 697 1716 
Q 838 2438 1203 2875 
z
M 3238 1747 
Q 3359 2381 3169 2744 
Q 2978 3103 2522 3103 
Q 2066 3103 1734 2744 
Q 1403 2381 1281 1747 
Q 1156 1113 1347 750 
Q 1538 391 1994 391 
Q 2450 391 2781 750 
Q 3113 1113 3238 1747 
z
" transform="scale(0.015625)"/>
      <path id="DejaVuSans-3d" d="M 678 2906 
L 4684 2906 
L 4684 2381 
L 678 2381 
L 678 2906 
z
M 678 1631 
L 4684 1631 
L 4684 1100 
L 678 1100 
L 678 1631 
z
" transform="scale(0.015625)"/>
      <path id="DejaVuSans-2212" d="M 678 2272 
L 4684 2272 
L 4684 1741 
L 678 1741 
L 678 2272 
z
" transform="scale(0.015625)"/>
     </defs>
     <use xlink:href="#DejaVuSans-Oblique-3c1" transform="translate(0 0.78125)"/>
     <use xlink:href="#DejaVuSans-3d" transform="translate(82.958984 0.78125)"/>
     <use xlink:href="#DejaVuSans-2212" transform="translate(186.230469 0.78125)"/>
     <use xlink:href="#DejaVuSans-30" transform="translate(270.019531 0.78125)"/>
     <use xlink:href="#DejaVuSans-2e" transform="translate(333.642578 0.78125)"/>
     <use xlink:href="#DejaVuSans-30" transform="translate(365.429688 0.78125)"/>
     <use xlink:href="#DejaVuSans-31" transform="translate(429.052734 0.78125)"/>
    </g>
   </g>
   <g id="text_16">
    <!-- a  Cold-start difficulty -->
    <g transform="translate(64.99235 14.038594) scale(0.09 -0.09)">
     <defs>
      <path id="DejaVuSans-43" d="M 4122 4306 
L 4122 3641 
Q 3803 3938 3442 4084 
Q 3081 4231 2675 4231 
Q 1875 4231 1450 3742 
Q 1025 3253 1025 2328 
Q 1025 1406 1450 917 
Q 1875 428 2675 428 
Q 3081 428 3442 575 
Q 3803 722 4122 1019 
L 4122 359 
Q 3791 134 3420 21 
Q 3050 -91 2638 -91 
Q 1578 -91 968 557 
Q 359 1206 359 2328 
Q 359 3453 968 4101 
Q 1578 4750 2638 4750 
Q 3056 4750 3426 4639 
Q 3797 4528 4122 4306 
z
" transform="scale(0.015625)"/>
      <path id="DejaVuSans-63" d="M 3122 3366 
L 3122 2828 
Q 2878 2963 2633 3030 
Q 2388 3097 2138 3097 
Q 1578 3097 1268 2742 
Q 959 2388 959 1747 
Q 959 1106 1268 751 
Q 1578 397 2138 397 
Q 2388 397 2633 464 
Q 2878 531 3122 666 
L 3122 134 
Q 2881 22 2623 -34 
Q 2366 -91 2075 -91 
Q 1284 -91 818 406 
Q 353 903 353 1747 
Q 353 2603 823 3093 
Q 1294 3584 2113 3584 
Q 2378 3584 2631 3529 
Q 2884 3475 3122 3366 
z
" transform="scale(0.015625)"/>
      <path id="DejaVuSans-79" d="M 2059 -325 
Q 1816 -950 1584 -1140 
Q 1353 -1331 966 -1331 
L 506 -1331 
L 506 -850 
L 844 -850 
Q 1081 -850 1212 -737 
Q 1344 -625 1503 -206 
L 1606 56 
L 191 3500 
L 800 3500 
L 1894 763 
L 2988 3500 
L 3597 3500 
L 2059 -325 
z
" transform="scale(0.015625)"/>
     </defs>
     <use xlink:href="#DejaVuSans-61"/>
     <use xlink:href="#DejaVuSans-20" transform="translate(61.279297 0)"/>
     <use xlink:href="#DejaVuSans-20" transform="translate(93.066406 0)"/>
     <use xlink:href="#DejaVuSans-43" transform="translate(124.853516 0)"/>
     <use xlink:href="#DejaVuSans-6f" transform="translate(194.677734 0)"/>
     <use xlink:href="#DejaVuSans-6c" transform="translate(255.859375 0)"/>
     <use xlink:href="#DejaVuSans-64" transform="translate(283.642578 0)"/>
     <use xlink:href="#DejaVuSans-2d" transform="translate(347.119141 0)"/>
     <use xlink:href="#DejaVuSans-73" transform="translate(383.203125 0)"/>
     <use xlink:href="#DejaVuSans-74" transform="translate(435.302734 0)"/>
     <use xlink:href="#DejaVuSans-61" transform="translate(474.511719 0)"/>
     <use xlink:href="#DejaVuSans-72" transform="translate(535.791016 0)"/>
     <use xlink:href="#DejaVuSans-74" transform="translate(576.904297 0)"/>
     <use xlink:href="#DejaVuSans-20" transform="translate(616.113281 0)"/>
     <use xlink:href="#DejaVuSans-64" transform="translate(647.900391 0)"/>
     <use xlink:href="#DejaVuSans-69" transform="translate(711.376953 0)"/>
     <use xlink:href="#DejaVuSans-66" transform="translate(739.160156 0)"/>
     <use xlink:href="#DejaVuSans-66" transform="translate(774.365234 0)"/>
     <use xlink:href="#DejaVuSans-69" transform="translate(809.570312 0)"/>
     <use xlink:href="#DejaVuSans-63" transform="translate(837.353516 0)"/>
     <use xlink:href="#DejaVuSans-75" transform="translate(892.333984 0)"/>
     <use xlink:href="#DejaVuSans-6c" transform="translate(955.712891 0)"/>
     <use xlink:href="#DejaVuSans-74" transform="translate(983.496094 0)"/>
     <use xlink:href="#DejaVuSans-79" transform="translate(1022.705078 0)"/>
    </g>
   </g>
  </g>
  <g id="axes_2">
   <g id="patch_5">
    <path d="M 227.495672 155.198426 
L 342.104029 155.198426 
L 342.104029 20.038594 
L 227.495672 20.038594 
z
" style="fill: #ffffff"/>
   </g>
   <g id="patch_6">
    <path d="M 234.934195 155.198426 
L 246.505231 155.198426 
L 246.505231 123.435448 
L 234.934195 123.435448 
z
" clip-path="url(#p961fdf91fd)" style="fill: #d96c06; opacity: 0.82; stroke: #ffffff; stroke-width: 0.75; stroke-linejoin: miter"/>
   </g>
   <g id="patch_7">
    <path d="M 256.974264 155.198426 
L 268.5453 155.198426 
L 268.5453 44.028001 
L 256.974264 44.028001 
z
" clip-path="url(#p961fdf91fd)" style="fill: #d96c06; opacity: 0.82; stroke: #ffffff; stroke-width: 0.75; stroke-linejoin: miter"/>
   </g>
   <g id="patch_8">
    <path d="M 279.014332 155.198426 
L 290.585368 155.198426 
L 290.585368 26.474776 
L 279.014332 26.474776 
z
" clip-path="url(#p961fdf91fd)" style="fill: #d96c06; opacity: 0.82; stroke: #ffffff; stroke-width: 0.75; stroke-linejoin: miter"/>
   </g>
   <g id="patch_9">
    <path d="M 301.054401 155.198426 
L 312.625437 155.198426 
L 312.625437 50.004906 
L 301.054401 50.004906 
z
" clip-path="url(#p961fdf91fd)" style="fill: #d96c06; opacity: 0.82; stroke: #ffffff; stroke-width: 0.75; stroke-linejoin: miter"/>
   </g>
   <g id="patch_10">
    <path d="M 323.094469 155.198426 
L 334.665505 155.198426 
L 334.665505 33.921599 
L 323.094469 33.921599 
z
" clip-path="url(#p961fdf91fd)" style="fill: #d96c06; opacity: 0.82; stroke: #ffffff; stroke-width: 0.75; stroke-linejoin: miter"/>
   </g>
   <g id="matplotlib.axis_3">
    <g id="xtick_6">
     <g id="line2d_21">
      <g>
       <use xlink:href="#mf8652ebcb2" x="229.699679" y="155.198426" style="stroke: #000000; stroke-width: 0.8"/>
      </g>
     </g>
     <g id="text_17">
      <!-- 0.00 -->
      <g transform="translate(221.350069 167.897254) scale(0.075 -0.075)">
       <use xlink:href="#DejaVuSans-30"/>
       <use xlink:href="#DejaVuSans-2e" transform="translate(63.623047 0)"/>
       <use xlink:href="#DejaVuSans-30" transform="translate(95.410156 0)"/>
       <use xlink:href="#DejaVuSans-30" transform="translate(159.033203 0)"/>
      </g>
     </g>
    </g>
    <g id="xtick_7">
     <g id="line2d_22">
      <g>
       <use xlink:href="#mf8652ebcb2" x="257.249764" y="155.198426" style="stroke: #000000; stroke-width: 0.8"/>
      </g>
     </g>
     <g id="text_18">
      <!-- 0.25 -->
      <g transform="translate(248.900155 167.897254) scale(0.075 -0.075)">
       <use xlink:href="#DejaVuSans-30"/>
       <use xlink:href="#DejaVuSans-2e" transform="translate(63.623047 0)"/>
       <use xlink:href="#DejaVuSans-32" transform="translate(95.410156 0)"/>
       <use xlink:href="#DejaVuSans-35" transform="translate(159.033203 0)"/>
      </g>
     </g>
    </g>
    <g id="xtick_8">
     <g id="line2d_23">
      <g>
       <use xlink:href="#mf8652ebcb2" x="284.79985" y="155.198426" style="stroke: #000000; stroke-width: 0.8"/>
      </g>
     </g>
     <g id="text_19">
      <!-- 0.50 -->
      <g transform="translate(276.450241 167.897254) scale(0.075 -0.075)">
       <use xlink:href="#DejaVuSans-30"/>
       <use xlink:href="#DejaVuSans-2e" transform="translate(63.623047 0)"/>
       <use xlink:href="#DejaVuSans-35" transform="translate(95.410156 0)"/>
       <use xlink:href="#DejaVuSans-30" transform="translate(159.033203 0)"/>
      </g>
     </g>
    </g>
    <g id="xtick_9">
     <g id="line2d_24">
      <g>
       <use xlink:href="#mf8652ebcb2" x="312.349936" y="155.198426" style="stroke: #000000; stroke-width: 0.8"/>
      </g>
     </g>
     <g id="text_20">
      <!-- 0.75 -->
      <g transform="translate(304.000327 167.897254) scale(0.075 -0.075)">
       <use xlink:href="#DejaVuSans-30"/>
       <use xlink:href="#DejaVuSans-2e" transform="translate(63.623047 0)"/>
       <use xlink:href="#DejaVuSans-37" transform="translate(95.410156 0)"/>
       <use xlink:href="#DejaVuSans-35" transform="translate(159.033203 0)"/>
      </g>
     </g>
    </g>
    <g id="xtick_10">
     <g id="line2d_25">
      <g>
       <use xlink:href="#mf8652ebcb2" x="339.900022" y="155.198426" style="stroke: #000000; stroke-width: 0.8"/>
      </g>
     </g>
     <g id="text_21">
      <!-- 1.00 -->
      <g transform="translate(331.550412 167.897254) scale(0.075 -0.075)">
       <use xlink:href="#DejaVuSans-31"/>
       <use xlink:href="#DejaVuSans-2e" transform="translate(63.623047 0)"/>
       <use xlink:href="#DejaVuSans-30" transform="translate(95.410156 0)"/>
       <use xlink:href="#DejaVuSans-30" transform="translate(159.033203 0)"/>
      </g>
     </g>
    </g>
    <g id="text_22">
     <!-- KUN bias-field quantile -->
     <g transform="translate(239.246725 179.53577) scale(0.08 -0.08)">
      <use xlink:href="#DejaVuSans-4b"/>
      <use xlink:href="#DejaVuSans-55" transform="translate(62.951172 0)"/>
      <use xlink:href="#DejaVuSans-4e" transform="translate(136.144531 0)"/>
      <use xlink:href="#DejaVuSans-20" transform="translate(210.949219 0)"/>
      <use xlink:href="#DejaVuSans-62" transform="translate(242.736328 0)"/>
      <use xlink:href="#DejaVuSans-69" transform="translate(306.212891 0)"/>
      <use xlink:href="#DejaVuSans-61" transform="translate(333.996094 0)"/>
      <use xlink:href="#DejaVuSans-73" transform="translate(395.275391 0)"/>
      <use xlink:href="#DejaVuSans-2d" transform="translate(447.375 0)"/>
      <use xlink:href="#DejaVuSans-66" transform="translate(483.458984 0)"/>
      <use xlink:href="#DejaVuSans-69" transform="translate(518.664062 0)"/>
      <use xlink:href="#DejaVuSans-65" transform="translate(546.447266 0)"/>
      <use xlink:href="#DejaVuSans-6c" transform="translate(607.970703 0)"/>
      <use xlink:href="#DejaVuSans-64" transform="translate(635.753906 0)"/>
      <use xlink:href="#DejaVuSans-20" transform="translate(699.230469 0)"/>
      <use xlink:href="#DejaVuSans-71" transform="translate(731.017578 0)"/>
      <use xlink:href="#DejaVuSans-75" transform="translate(794.494141 0)"/>
      <use xlink:href="#DejaVuSans-61" transform="translate(857.873047 0)"/>
      <use xlink:href="#DejaVuSans-6e" transform="translate(919.152344 0)"/>
      <use xlink:href="#DejaVuSans-74" transform="translate(982.53125 0)"/>
      <use xlink:href="#DejaVuSans-69" transform="translate(1021.740234 0)"/>
      <use xlink:href="#DejaVuSans-6c" transform="translate(1049.523438 0)"/>
      <use xlink:href="#DejaVuSans-65" transform="translate(1077.306641 0)"/>
     </g>
    </g>
   </g>
   <g id="matplotlib.axis_4">
    <g id="ytick_8">
     <g id="line2d_26">
      <path d="M 227.495672 155.198426 
L 342.104029 155.198426 
" clip-path="url(#p961fdf91fd)" style="fill: none; stroke: #d9d9d9; stroke-opacity: 0.75; stroke-width: 0.55; stroke-linecap: square"/>
     </g>
     <g id="line2d_27">
      <g>
       <use xlink:href="#mc7ae6412f9" x="227.495672" y="155.198426" style="stroke: #000000; stroke-width: 0.8"/>
      </g>
     </g>
     <g id="text_23">
      <!-- 0.00 -->
      <g transform="translate(203.796453 158.04784) scale(0.075 -0.075)">
       <use xlink:href="#DejaVuSans-30"/>
       <use xlink:href="#DejaVuSans-2e" transform="translate(63.623047 0)"/>
       <use xlink:href="#DejaVuSans-30" transform="translate(95.410156 0)"/>
       <use xlink:href="#DejaVuSans-30" transform="translate(159.033203 0)"/>
      </g>
     </g>
    </g>
    <g id="ytick_9">
     <g id="line2d_28">
      <path d="M 227.495672 132.964341 
L 342.104029 132.964341 
" clip-path="url(#p961fdf91fd)" style="fill: none; stroke: #d9d9d9; stroke-opacity: 0.75; stroke-width: 0.55; stroke-linecap: square"/>
     </g>
     <g id="line2d_29">
      <g>
       <use xlink:href="#mc7ae6412f9" x="227.495672" y="132.964341" style="stroke: #000000; stroke-width: 0.8"/>
      </g>
     </g>
     <g id="text_24">
      <!-- 0.05 -->
      <g transform="translate(203.796453 135.813755) scale(0.075 -0.075)">
       <use xlink:href="#DejaVuSans-30"/>
       <use xlink:href="#DejaVuSans-2e" transform="translate(63.623047 0)"/>
       <use xlink:href="#DejaVuSans-30" transform="translate(95.410156 0)"/>
       <use xlink:href="#DejaVuSans-35" transform="translate(159.033203 0)"/>
      </g>
     </g>
    </g>
    <g id="ytick_10">
     <g id="line2d_30">
      <path d="M 227.495672 110.730256 
L 342.104029 110.730256 
" clip-path="url(#p961fdf91fd)" style="fill: none; stroke: #d9d9d9; stroke-opacity: 0.75; stroke-width: 0.55; stroke-linecap: square"/>
     </g>
     <g id="line2d_31">
      <g>
       <use xlink:href="#mc7ae6412f9" x="227.495672" y="110.730256" style="stroke: #000000; stroke-width: 0.8"/>
      </g>
     </g>
     <g id="text_25">
      <!-- 0.10 -->
      <g transform="translate(203.796453 113.57967) scale(0.075 -0.075)">
       <use xlink:href="#DejaVuSans-30"/>
       <use xlink:href="#DejaVuSans-2e" transform="translate(63.623047 0)"/>
       <use xlink:href="#DejaVuSans-31" transform="translate(95.410156 0)"/>
       <use xlink:href="#DejaVuSans-30" transform="translate(159.033203 0)"/>
      </g>
     </g>
    </g>
    <g id="ytick_11">
     <g id="line2d_32">
      <path d="M 227.495672 88.496171 
L 342.104029 88.496171 
" clip-path="url(#p961fdf91fd)" style="fill: none; stroke: #d9d9d9; stroke-opacity: 0.75; stroke-width: 0.55; stroke-linecap: square"/>
     </g>
     <g id="line2d_33">
      <g>
       <use xlink:href="#mc7ae6412f9" x="227.495672" y="88.496171" style="stroke: #000000; stroke-width: 0.8"/>
      </g>
     </g>
     <g id="text_26">
      <!-- 0.15 -->
      <g transform="translate(203.796453 91.345585) scale(0.075 -0.075)">
       <use xlink:href="#DejaVuSans-30"/>
       <use xlink:href="#DejaVuSans-2e" transform="translate(63.623047 0)"/>
       <use xlink:href="#DejaVuSans-31" transform="translate(95.410156 0)"/>
       <use xlink:href="#DejaVuSans-35" transform="translate(159.033203 0)"/>
      </g>
     </g>
    </g>
    <g id="ytick_12">
     <g id="line2d_34">
      <path d="M 227.495672 66.262086 
L 342.104029 66.262086 
" clip-path="url(#p961fdf91fd)" style="fill: none; stroke: #d9d9d9; stroke-opacity: 0.75; stroke-width: 0.55; stroke-linecap: square"/>
     </g>
     <g id="line2d_35">
      <g>
       <use xlink:href="#mc7ae6412f9" x="227.495672" y="66.262086" style="stroke: #000000; stroke-width: 0.8"/>
      </g>
     </g>
     <g id="text_27">
      <!-- 0.20 -->
      <g transform="translate(203.796453 69.1115) scale(0.075 -0.075)">
       <use xlink:href="#DejaVuSans-30"/>
       <use xlink:href="#DejaVuSans-2e" transform="translate(63.623047 0)"/>
       <use xlink:href="#DejaVuSans-32" transform="translate(95.410156 0)"/>
       <use xlink:href="#DejaVuSans-30" transform="translate(159.033203 0)"/>
      </g>
     </g>
    </g>
    <g id="ytick_13">
     <g id="line2d_36">
      <path d="M 227.495672 44.028001 
L 342.104029 44.028001 
" clip-path="url(#p961fdf91fd)" style="fill: none; stroke: #d9d9d9; stroke-opacity: 0.75; stroke-width: 0.55; stroke-linecap: square"/>
     </g>
     <g id="line2d_37">
      <g>
       <use xlink:href="#mc7ae6412f9" x="227.495672" y="44.028001" style="stroke: #000000; stroke-width: 0.8"/>
      </g>
     </g>
     <g id="text_28">
      <!-- 0.25 -->
      <g transform="translate(203.796453 46.877415) scale(0.075 -0.075)">
       <use xlink:href="#DejaVuSans-30"/>
       <use xlink:href="#DejaVuSans-2e" transform="translate(63.623047 0)"/>
       <use xlink:href="#DejaVuSans-32" transform="translate(95.410156 0)"/>
       <use xlink:href="#DejaVuSans-35" transform="translate(159.033203 0)"/>
      </g>
     </g>
    </g>
    <g id="ytick_14">
     <g id="line2d_38">
      <path d="M 227.495672 21.793916 
L 342.104029 21.793916 
" clip-path="url(#p961fdf91fd)" style="fill: none; stroke: #d9d9d9; stroke-opacity: 0.75; stroke-width: 0.55; stroke-linecap: square"/>
     </g>
     <g id="line2d_39">
      <g>
       <use xlink:href="#mc7ae6412f9" x="227.495672" y="21.793916" style="stroke: #000000; stroke-width: 0.8"/>
      </g>
     </g>
     <g id="text_29">
      <!-- 0.30 -->
      <g transform="translate(203.796453 24.64333) scale(0.075 -0.075)">
       <use xlink:href="#DejaVuSans-30"/>
       <use xlink:href="#DejaVuSans-2e" transform="translate(63.623047 0)"/>
       <use xlink:href="#DejaVuSans-33" transform="translate(95.410156 0)"/>
       <use xlink:href="#DejaVuSans-30" transform="translate(159.033203 0)"/>
      </g>
     </g>
    </g>
    <g id="text_30">
     <!-- Top-quartile Sobol32 -->
     <g transform="translate(189.174453 128.67976) rotate(-90) scale(0.08 -0.08)">
      <defs>
       <path id="DejaVuSans-54" d="M -19 4666 
L 3928 4666 
L 3928 4134 
L 2272 4134 
L 2272 0 
L 1638 0 
L 1638 4134 
L -19 4134 
L -19 4666 
z
" transform="scale(0.015625)"/>
      </defs>
      <use xlink:href="#DejaVuSans-54"/>
      <use xlink:href="#DejaVuSans-6f" transform="translate(44.083984 0)"/>
      <use xlink:href="#DejaVuSans-70" transform="translate(105.265625 0)"/>
      <use xlink:href="#DejaVuSans-2d" transform="translate(168.742188 0)"/>
      <use xlink:href="#DejaVuSans-71" transform="translate(204.826172 0)"/>
      <use xlink:href="#DejaVuSans-75" transform="translate(268.302734 0)"/>
      <use xlink:href="#DejaVuSans-61" transform="translate(331.681641 0)"/>
      <use xlink:href="#DejaVuSans-72" transform="translate(392.960938 0)"/>
      <use xlink:href="#DejaVuSans-74" transform="translate(434.074219 0)"/>
      <use xlink:href="#DejaVuSans-69" transform="translate(473.283203 0)"/>
      <use xlink:href="#DejaVuSans-6c" transform="translate(501.066406 0)"/>
      <use xlink:href="#DejaVuSans-65" transform="translate(528.849609 0)"/>
      <use xlink:href="#DejaVuSans-20" transform="translate(590.373047 0)"/>
      <use xlink:href="#DejaVuSans-53" transform="translate(622.160156 0)"/>
      <use xlink:href="#DejaVuSans-6f" transform="translate(685.636719 0)"/>
      <use xlink:href="#DejaVuSans-62" transform="translate(746.818359 0)"/>
      <use xlink:href="#DejaVuSans-6f" transform="translate(810.294922 0)"/>
      <use xlink:href="#DejaVuSans-6c" transform="translate(871.476562 0)"/>
      <use xlink:href="#DejaVuSans-33" transform="translate(899.259766 0)"/>
      <use xlink:href="#DejaVuSans-32" transform="translate(962.882812 0)"/>
     </g>
     <!-- error fraction -->
     <g transform="translate(198.132703 113.936635) rotate(-90) scale(0.08 -0.08)">
      <use xlink:href="#DejaVuSans-65"/>
      <use xlink:href="#DejaVuSans-72" transform="translate(61.523438 0)"/>
      <use xlink:href="#DejaVuSans-72" transform="translate(100.886719 0)"/>
      <use xlink:href="#DejaVuSans-6f" transform="translate(139.75 0)"/>
      <use xlink:href="#DejaVuSans-72" transform="translate(200.931641 0)"/>
      <use xlink:href="#DejaVuSans-20" transform="translate(242.044922 0)"/>
      <use xlink:href="#DejaVuSans-66" transform="translate(273.832031 0)"/>
      <use xlink:href="#DejaVuSans-72" transform="translate(309.037109 0)"/>
      <use xlink:href="#DejaVuSans-61" transform="translate(350.150391 0)"/>
      <use xlink:href="#DejaVuSans-63" transform="translate(411.429688 0)"/>
      <use xlink:href="#DejaVuSans-74" transform="translate(466.410156 0)"/>
      <use xlink:href="#DejaVuSans-69" transform="translate(505.619141 0)"/>
      <use xlink:href="#DejaVuSans-6f" transform="translate(533.402344 0)"/>
      <use xlink:href="#DejaVuSans-6e" transform="translate(594.583984 0)"/>
     </g>
    </g>
   </g>
   <g id="line2d_40">
    <path d="M 227.495672 44.028001 
L 342.104029 44.028001 
" clip-path="url(#p961fdf91fd)" style="fill: none; stroke-dasharray: 4.07,1.76; stroke-dashoffset: 0; stroke: #555555; stroke-width: 1.1"/>
   </g>
   <g id="patch_11">
    <path d="M 227.495672 155.198426 
L 227.495672 20.038594 
" style="fill: none; stroke: #000000; stroke-width: 0.8; stroke-linejoin: miter; stroke-linecap: square"/>
   </g>
   <g id="patch_12">
    <path d="M 227.495672 155.198426 
L 342.104029 155.198426 
" style="fill: none; stroke: #000000; stroke-width: 0.8; stroke-linejoin: miter; stroke-linecap: square"/>
   </g>
   <g id="text_31">
    <!-- random rate -->
    <g style="fill: #555555" transform="translate(294.103515 35.901995) scale(0.07 -0.07)">
     <use xlink:href="#DejaVuSans-72"/>
     <use xlink:href="#DejaVuSans-61" transform="translate(41.113281 0)"/>
     <use xlink:href="#DejaVuSans-6e" transform="translate(102.392578 0)"/>
     <use xlink:href="#DejaVuSans-64" transform="translate(165.771484 0)"/>
     <use xlink:href="#DejaVuSans-6f" transform="translate(229.248047 0)"/>
     <use xlink:href="#DejaVuSans-6d" transform="translate(290.429688 0)"/>
     <use xlink:href="#DejaVuSans-20" transform="translate(387.841797 0)"/>
     <use xlink:href="#DejaVuSans-72" transform="translate(419.628906 0)"/>
     <use xlink:href="#DejaVuSans-61" transform="translate(460.742188 0)"/>
     <use xlink:href="#DejaVuSans-74" transform="translate(522.021484 0)"/>
     <use xlink:href="#DejaVuSans-65" transform="translate(561.230469 0)"/>
    </g>
   </g>
   <g id="text_32">
    <!-- b  Difficulty enrichment -->
    <g transform="translate(231.69985 14.038594) scale(0.09 -0.09)">
     <defs>
      <path id="DejaVuSans-44" d="M 1259 4147 
L 1259 519 
L 2022 519 
Q 2988 519 3436 956 
Q 3884 1394 3884 2338 
Q 3884 3275 3436 3711 
Q 2988 4147 2022 4147 
L 1259 4147 
z
M 628 4666 
L 1925 4666 
Q 3281 4666 3915 4102 
Q 4550 3538 4550 2338 
Q 4550 1131 3912 565 
Q 3275 0 1925 0 
L 628 0 
L 628 4666 
z
" transform="scale(0.015625)"/>
      <path id="DejaVuSans-68" d="M 3513 2113 
L 3513 0 
L 2938 0 
L 2938 2094 
Q 2938 2591 2744 2837 
Q 2550 3084 2163 3084 
Q 1697 3084 1428 2787 
Q 1159 2491 1159 1978 
L 1159 0 
L 581 0 
L 581 4863 
L 1159 4863 
L 1159 2956 
Q 1366 3272 1645 3428 
Q 1925 3584 2291 3584 
Q 2894 3584 3203 3211 
Q 3513 2838 3513 2113 
z
" transform="scale(0.015625)"/>
     </defs>
     <use xlink:href="#DejaVuSans-62"/>
     <use xlink:href="#DejaVuSans-20" transform="translate(63.476562 0)"/>
     <use xlink:href="#DejaVuSans-20" transform="translate(95.263672 0)"/>
     <use xlink:href="#DejaVuSans-44" transform="translate(127.050781 0)"/>
     <use xlink:href="#DejaVuSans-69" transform="translate(204.052734 0)"/>
     <use xlink:href="#DejaVuSans-66" transform="translate(231.835938 0)"/>
     <use xlink:href="#DejaVuSans-66" transform="translate(267.041016 0)"/>
     <use xlink:href="#DejaVuSans-69" transform="translate(302.246094 0)"/>
     <use xlink:href="#DejaVuSans-63" transform="translate(330.029297 0)"/>
     <use xlink:href="#DejaVuSans-75" transform="translate(385.009766 0)"/>
     <use xlink:href="#DejaVuSans-6c" transform="translate(448.388672 0)"/>
     <use xlink:href="#DejaVuSans-74" transform="translate(476.171875 0)"/>
     <use xlink:href="#DejaVuSans-79" transform="translate(515.380859 0)"/>
     <use xlink:href="#DejaVuSans-20" transform="translate(574.560547 0)"/>
     <use xlink:href="#DejaVuSans-65" transform="translate(606.347656 0)"/>
     <use xlink:href="#DejaVuSans-6e" transform="translate(667.871094 0)"/>
     <use xlink:href="#DejaVuSans-72" transform="translate(731.25 0)"/>
     <use xlink:href="#DejaVuSans-69" transform="translate(772.363281 0)"/>
     <use xlink:href="#DejaVuSans-63" transform="translate(800.146484 0)"/>
     <use xlink:href="#DejaVuSans-68" transform="translate(855.126953 0)"/>
     <use xlink:href="#DejaVuSans-6d" transform="translate(918.505859 0)"/>
     <use xlink:href="#DejaVuSans-65" transform="translate(1015.917969 0)"/>
     <use xlink:href="#DejaVuSans-6e" transform="translate(1077.441406 0)"/>
     <use xlink:href="#DejaVuSans-74" transform="translate(1140.820312 0)"/>
    </g>
   </g>
  </g>
  <g id="axes_3">
   <g id="patch_13">
    <path d="M 409.676141 155.198426 
L 524.284497 155.198426 
L 524.284497 20.038594 
L 409.676141 20.038594 
z
" style="fill: #ffffff"/>
   </g>
   <g id="FillBetweenPolyCollection_2">
    <defs>
     <path id="me474c483e5" d="M 422.900182 -165.949609 
L 422.900182 -59.91965 
L 444.94025 -74.911318 
L 466.980319 -85.429717 
L 489.020388 -90.312536 
L 511.060456 -79.916898 
L 511.060456 -182.792225 
L 511.060456 -182.792225 
L 489.020388 -162.802939 
L 466.980319 -172.037657 
L 444.94025 -177.050287 
L 422.900182 -165.949609 
z
"/>
    </defs>
    <g clip-path="url(#p777d9954be)">
     <use xlink:href="#me474c483e5" x="0" y="208.974447" style="fill: #0b7f7c; fill-opacity: 0.18"/>
    </g>
   </g>
   <g id="matplotlib.axis_5">
    <g id="xtick_11">
     <g id="line2d_41">
      <g>
       <use xlink:href="#mf8652ebcb2" x="411.880147" y="155.198426" style="stroke: #000000; stroke-width: 0.8"/>
      </g>
     </g>
     <g id="text_33">
      <!-- 0.00 -->
      <g transform="translate(403.530538 167.897254) scale(0.075 -0.075)">
       <use xlink:href="#DejaVuSans-30"/>
       <use xlink:href="#DejaVuSans-2e" transform="translate(63.623047 0)"/>
       <use xlink:href="#DejaVuSans-30" transform="translate(95.410156 0)"/>
       <use xlink:href="#DejaVuSans-30" transform="translate(159.033203 0)"/>
      </g>
     </g>
    </g>
    <g id="xtick_12">
     <g id="line2d_42">
      <g>
       <use xlink:href="#mf8652ebcb2" x="439.430233" y="155.198426" style="stroke: #000000; stroke-width: 0.8"/>
      </g>
     </g>
     <g id="text_34">
      <!-- 0.25 -->
      <g transform="translate(431.080624 167.897254) scale(0.075 -0.075)">
       <use xlink:href="#DejaVuSans-30"/>
       <use xlink:href="#DejaVuSans-2e" transform="translate(63.623047 0)"/>
       <use xlink:href="#DejaVuSans-32" transform="translate(95.410156 0)"/>
       <use xlink:href="#DejaVuSans-35" transform="translate(159.033203 0)"/>
      </g>
     </g>
    </g>
    <g id="xtick_13">
     <g id="line2d_43">
      <g>
       <use xlink:href="#mf8652ebcb2" x="466.980319" y="155.198426" style="stroke: #000000; stroke-width: 0.8"/>
      </g>
     </g>
     <g id="text_35">
      <!-- 0.50 -->
      <g transform="translate(458.63071 167.897254) scale(0.075 -0.075)">
       <use xlink:href="#DejaVuSans-30"/>
       <use xlink:href="#DejaVuSans-2e" transform="translate(63.623047 0)"/>
       <use xlink:href="#DejaVuSans-35" transform="translate(95.410156 0)"/>
       <use xlink:href="#DejaVuSans-30" transform="translate(159.033203 0)"/>
      </g>
     </g>
    </g>
    <g id="xtick_14">
     <g id="line2d_44">
      <g>
       <use xlink:href="#mf8652ebcb2" x="494.530405" y="155.198426" style="stroke: #000000; stroke-width: 0.8"/>
      </g>
     </g>
     <g id="text_36">
      <!-- 0.75 -->
      <g transform="translate(486.180795 167.897254) scale(0.075 -0.075)">
       <use xlink:href="#DejaVuSans-30"/>
       <use xlink:href="#DejaVuSans-2e" transform="translate(63.623047 0)"/>
       <use xlink:href="#DejaVuSans-37" transform="translate(95.410156 0)"/>
       <use xlink:href="#DejaVuSans-35" transform="translate(159.033203 0)"/>
      </g>
     </g>
    </g>
    <g id="xtick_15">
     <g id="line2d_45">
      <g>
       <use xlink:href="#mf8652ebcb2" x="522.08049" y="155.198426" style="stroke: #000000; stroke-width: 0.8"/>
      </g>
     </g>
     <g id="text_37">
      <!-- 1.00 -->
      <g transform="translate(513.730881 167.897254) scale(0.075 -0.075)">
       <use xlink:href="#DejaVuSans-31"/>
       <use xlink:href="#DejaVuSans-2e" transform="translate(63.623047 0)"/>
       <use xlink:href="#DejaVuSans-30" transform="translate(95.410156 0)"/>
       <use xlink:href="#DejaVuSans-30" transform="translate(159.033203 0)"/>
      </g>
     </g>
    </g>
    <g id="text_38">
     <!-- KUN bias-field quantile -->
     <g transform="translate(421.427194 179.53577) scale(0.08 -0.08)">
      <use xlink:href="#DejaVuSans-4b"/>
      <use xlink:href="#DejaVuSans-55" transform="translate(62.951172 0)"/>
      <use xlink:href="#DejaVuSans-4e" transform="translate(136.144531 0)"/>
      <use xlink:href="#DejaVuSans-20" transform="translate(210.949219 0)"/>
      <use xlink:href="#DejaVuSans-62" transform="translate(242.736328 0)"/>
      <use xlink:href="#DejaVuSans-69" transform="translate(306.212891 0)"/>
      <use xlink:href="#DejaVuSans-61" transform="translate(333.996094 0)"/>
      <use xlink:href="#DejaVuSans-73" transform="translate(395.275391 0)"/>
      <use xlink:href="#DejaVuSans-2d" transform="translate(447.375 0)"/>
      <use xlink:href="#DejaVuSans-66" transform="translate(483.458984 0)"/>
      <use xlink:href="#DejaVuSans-69" transform="translate(518.664062 0)"/>
      <use xlink:href="#DejaVuSans-65" transform="translate(546.447266 0)"/>
      <use xlink:href="#DejaVuSans-6c" transform="translate(607.970703 0)"/>
      <use xlink:href="#DejaVuSans-64" transform="translate(635.753906 0)"/>
      <use xlink:href="#DejaVuSans-20" transform="translate(699.230469 0)"/>
      <use xlink:href="#DejaVuSans-71" transform="translate(731.017578 0)"/>
      <use xlink:href="#DejaVuSans-75" transform="translate(794.494141 0)"/>
      <use xlink:href="#DejaVuSans-61" transform="translate(857.873047 0)"/>
      <use xlink:href="#DejaVuSans-6e" transform="translate(919.152344 0)"/>
      <use xlink:href="#DejaVuSans-74" transform="translate(982.53125 0)"/>
      <use xlink:href="#DejaVuSans-69" transform="translate(1021.740234 0)"/>
      <use xlink:href="#DejaVuSans-6c" transform="translate(1049.523438 0)"/>
      <use xlink:href="#DejaVuSans-65" transform="translate(1077.306641 0)"/>
     </g>
    </g>
   </g>
   <g id="matplotlib.axis_6">
    <g id="ytick_15">
     <g id="line2d_46">
      <path d="M 409.676141 147.490028 
L 524.284497 147.490028 
" clip-path="url(#p777d9954be)" style="fill: none; stroke: #d9d9d9; stroke-opacity: 0.75; stroke-width: 0.55; stroke-linecap: square"/>
     </g>
     <g id="line2d_47">
      <g>
       <use xlink:href="#mc7ae6412f9" x="409.676141" y="147.490028" style="stroke: #000000; stroke-width: 0.8"/>
      </g>
     </g>
     <g id="text_39">
      <!-- −0.020 -->
      <g transform="translate(374.920281 150.339442) scale(0.075 -0.075)">
       <use xlink:href="#DejaVuSans-2212"/>
       <use xlink:href="#DejaVuSans-30" transform="translate(83.789062 0)"/>
       <use xlink:href="#DejaVuSans-2e" transform="translate(147.412109 0)"/>
       <use xlink:href="#DejaVuSans-30" transform="translate(179.199219 0)"/>
       <use xlink:href="#DejaVuSans-32" transform="translate(242.822266 0)"/>
       <use xlink:href="#DejaVuSans-30" transform="translate(306.445312 0)"/>
      </g>
     </g>
    </g>
    <g id="ytick_16">
     <g id="line2d_48">
      <path d="M 409.676141 130.85505 
L 524.284497 130.85505 
" clip-path="url(#p777d9954be)" style="fill: none; stroke: #d9d9d9; stroke-opacity: 0.75; stroke-width: 0.55; stroke-linecap: square"/>
     </g>
     <g id="line2d_49">
      <g>
       <use xlink:href="#mc7ae6412f9" x="409.676141" y="130.85505" style="stroke: #000000; stroke-width: 0.8"/>
      </g>
     </g>
     <g id="text_40">
      <!-- −0.015 -->
      <g transform="translate(374.920281 133.704464) scale(0.075 -0.075)">
       <use xlink:href="#DejaVuSans-2212"/>
       <use xlink:href="#DejaVuSans-30" transform="translate(83.789062 0)"/>
       <use xlink:href="#DejaVuSans-2e" transform="translate(147.412109 0)"/>
       <use xlink:href="#DejaVuSans-30" transform="translate(179.199219 0)"/>
       <use xlink:href="#DejaVuSans-31" transform="translate(242.822266 0)"/>
       <use xlink:href="#DejaVuSans-35" transform="translate(306.445312 0)"/>
      </g>
     </g>
    </g>
    <g id="ytick_17">
     <g id="line2d_50">
      <path d="M 409.676141 114.220071 
L 524.284497 114.220071 
" clip-path="url(#p777d9954be)" style="fill: none; stroke: #d9d9d9; stroke-opacity: 0.75; stroke-width: 0.55; stroke-linecap: square"/>
     </g>
     <g id="line2d_51">
      <g>
       <use xlink:href="#mc7ae6412f9" x="409.676141" y="114.220071" style="stroke: #000000; stroke-width: 0.8"/>
      </g>
     </g>
     <g id="text_41">
      <!-- −0.010 -->
      <g transform="translate(374.920281 117.069485) scale(0.075 -0.075)">
       <use xlink:href="#DejaVuSans-2212"/>
       <use xlink:href="#DejaVuSans-30" transform="translate(83.789062 0)"/>
       <use xlink:href="#DejaVuSans-2e" transform="translate(147.412109 0)"/>
       <use xlink:href="#DejaVuSans-30" transform="translate(179.199219 0)"/>
       <use xlink:href="#DejaVuSans-31" transform="translate(242.822266 0)"/>
       <use xlink:href="#DejaVuSans-30" transform="translate(306.445312 0)"/>
      </g>
     </g>
    </g>
    <g id="ytick_18">
     <g id="line2d_52">
      <path d="M 409.676141 97.585093 
L 524.284497 97.585093 
" clip-path="url(#p777d9954be)" style="fill: none; stroke: #d9d9d9; stroke-opacity: 0.75; stroke-width: 0.55; stroke-linecap: square"/>
     </g>
     <g id="line2d_53">
      <g>
       <use xlink:href="#mc7ae6412f9" x="409.676141" y="97.585093" style="stroke: #000000; stroke-width: 0.8"/>
      </g>
     </g>
     <g id="text_42">
      <!-- −0.005 -->
      <g transform="translate(374.920281 100.434507) scale(0.075 -0.075)">
       <use xlink:href="#DejaVuSans-2212"/>
       <use xlink:href="#DejaVuSans-30" transform="translate(83.789062 0)"/>
       <use xlink:href="#DejaVuSans-2e" transform="translate(147.412109 0)"/>
       <use xlink:href="#DejaVuSans-30" transform="translate(179.199219 0)"/>
       <use xlink:href="#DejaVuSans-30" transform="translate(242.822266 0)"/>
       <use xlink:href="#DejaVuSans-35" transform="translate(306.445312 0)"/>
      </g>
     </g>
    </g>
    <g id="ytick_19">
     <g id="line2d_54">
      <path d="M 409.676141 80.950114 
L 524.284497 80.950114 
" clip-path="url(#p777d9954be)" style="fill: none; stroke: #d9d9d9; stroke-opacity: 0.75; stroke-width: 0.55; stroke-linecap: square"/>
     </g>
     <g id="line2d_55">
      <g>
       <use xlink:href="#mc7ae6412f9" x="409.676141" y="80.950114" style="stroke: #000000; stroke-width: 0.8"/>
      </g>
     </g>
     <g id="text_43">
      <!-- 0.000 -->
      <g transform="translate(381.205047 83.799528) scale(0.075 -0.075)">
       <use xlink:href="#DejaVuSans-30"/>
       <use xlink:href="#DejaVuSans-2e" transform="translate(63.623047 0)"/>
       <use xlink:href="#DejaVuSans-30" transform="translate(95.410156 0)"/>
       <use xlink:href="#DejaVuSans-30" transform="translate(159.033203 0)"/>
       <use xlink:href="#DejaVuSans-30" transform="translate(222.65625 0)"/>
      </g>
     </g>
    </g>
    <g id="ytick_20">
     <g id="line2d_56">
      <path d="M 409.676141 64.315136 
L 524.284497 64.315136 
" clip-path="url(#p777d9954be)" style="fill: none; stroke: #d9d9d9; stroke-opacity: 0.75; stroke-width: 0.55; stroke-linecap: square"/>
     </g>
     <g id="line2d_57">
      <g>
       <use xlink:href="#mc7ae6412f9" x="409.676141" y="64.315136" style="stroke: #000000; stroke-width: 0.8"/>
      </g>
     </g>
     <g id="text_44">
      <!-- 0.005 -->
      <g transform="translate(381.205047 67.16455) scale(0.075 -0.075)">
       <use xlink:href="#DejaVuSans-30"/>
       <use xlink:href="#DejaVuSans-2e" transform="translate(63.623047 0)"/>
       <use xlink:href="#DejaVuSans-30" transform="translate(95.410156 0)"/>
       <use xlink:href="#DejaVuSans-30" transform="translate(159.033203 0)"/>
       <use xlink:href="#DejaVuSans-35" transform="translate(222.65625 0)"/>
      </g>
     </g>
    </g>
    <g id="ytick_21">
     <g id="line2d_58">
      <path d="M 409.676141 47.680158 
L 524.284497 47.680158 
" clip-path="url(#p777d9954be)" style="fill: none; stroke: #d9d9d9; stroke-opacity: 0.75; stroke-width: 0.55; stroke-linecap: square"/>
     </g>
     <g id="line2d_59">
      <g>
       <use xlink:href="#mc7ae6412f9" x="409.676141" y="47.680158" style="stroke: #000000; stroke-width: 0.8"/>
      </g>
     </g>
     <g id="text_45">
      <!-- 0.010 -->
      <g transform="translate(381.205047 50.529572) scale(0.075 -0.075)">
       <use xlink:href="#DejaVuSans-30"/>
       <use xlink:href="#DejaVuSans-2e" transform="translate(63.623047 0)"/>
       <use xlink:href="#DejaVuSans-30" transform="translate(95.410156 0)"/>
       <use xlink:href="#DejaVuSans-31" transform="translate(159.033203 0)"/>
       <use xlink:href="#DejaVuSans-30" transform="translate(222.65625 0)"/>
      </g>
     </g>
    </g>
    <g id="ytick_22">
     <g id="line2d_60">
      <path d="M 409.676141 31.045179 
L 524.284497 31.045179 
" clip-path="url(#p777d9954be)" style="fill: none; stroke: #d9d9d9; stroke-opacity: 0.75; stroke-width: 0.55; stroke-linecap: square"/>
     </g>
     <g id="line2d_61">
      <g>
       <use xlink:href="#mc7ae6412f9" x="409.676141" y="31.045179" style="stroke: #000000; stroke-width: 0.8"/>
      </g>
     </g>
     <g id="text_46">
      <!-- 0.015 -->
      <g transform="translate(381.205047 33.894593) scale(0.075 -0.075)">
       <use xlink:href="#DejaVuSans-30"/>
       <use xlink:href="#DejaVuSans-2e" transform="translate(63.623047 0)"/>
       <use xlink:href="#DejaVuSans-30" transform="translate(95.410156 0)"/>
       <use xlink:href="#DejaVuSans-31" transform="translate(159.033203 0)"/>
       <use xlink:href="#DejaVuSans-35" transform="translate(222.65625 0)"/>
      </g>
     </g>
    </g>
    <g id="text_47">
     <!-- PPR32 improvement -->
     <g transform="translate(360.298281 128.42101) rotate(-90) scale(0.08 -0.08)">
      <defs>
       <path id="DejaVuSans-50" d="M 1259 4147 
L 1259 2394 
L 2053 2394 
Q 2494 2394 2734 2622 
Q 2975 2850 2975 3272 
Q 2975 3691 2734 3919 
Q 2494 4147 2053 4147 
L 1259 4147 
z
M 628 4666 
L 2053 4666 
Q 2838 4666 3239 4311 
Q 3641 3956 3641 3272 
Q 3641 2581 3239 2228 
Q 2838 1875 2053 1875 
L 1259 1875 
L 1259 0 
L 628 0 
L 628 4666 
z
" transform="scale(0.015625)"/>
       <path id="DejaVuSans-52" d="M 2841 2188 
Q 3044 2119 3236 1894 
Q 3428 1669 3622 1275 
L 4263 0 
L 3584 0 
L 2988 1197 
Q 2756 1666 2539 1819 
Q 2322 1972 1947 1972 
L 1259 1972 
L 1259 0 
L 628 0 
L 628 4666 
L 2053 4666 
Q 2853 4666 3247 4331 
Q 3641 3997 3641 3322 
Q 3641 2881 3436 2590 
Q 3231 2300 2841 2188 
z
M 1259 4147 
L 1259 2491 
L 2053 2491 
Q 2509 2491 2742 2702 
Q 2975 2913 2975 3322 
Q 2975 3731 2742 3939 
Q 2509 4147 2053 4147 
L 1259 4147 
z
" transform="scale(0.015625)"/>
       <path id="DejaVuSans-76" d="M 191 3500 
L 800 3500 
L 1894 563 
L 2988 3500 
L 3597 3500 
L 2284 0 
L 1503 0 
L 191 3500 
z
" transform="scale(0.015625)"/>
      </defs>
      <use xlink:href="#DejaVuSans-50"/>
      <use xlink:href="#DejaVuSans-50" transform="translate(60.302734 0)"/>
      <use xlink:href="#DejaVuSans-52" transform="translate(120.605469 0)"/>
      <use xlink:href="#DejaVuSans-33" transform="translate(190.087891 0)"/>
      <use xlink:href="#DejaVuSans-32" transform="translate(253.710938 0)"/>
      <use xlink:href="#DejaVuSans-20" transform="translate(317.333984 0)"/>
      <use xlink:href="#DejaVuSans-69" transform="translate(349.121094 0)"/>
      <use xlink:href="#DejaVuSans-6d" transform="translate(376.904297 0)"/>
      <use xlink:href="#DejaVuSans-70" transform="translate(474.316406 0)"/>
      <use xlink:href="#DejaVuSans-72" transform="translate(537.792969 0)"/>
      <use xlink:href="#DejaVuSans-6f" transform="translate(576.65625 0)"/>
      <use xlink:href="#DejaVuSans-76" transform="translate(637.837891 0)"/>
      <use xlink:href="#DejaVuSans-65" transform="translate(697.017578 0)"/>
      <use xlink:href="#DejaVuSans-6d" transform="translate(758.541016 0)"/>
      <use xlink:href="#DejaVuSans-65" transform="translate(855.953125 0)"/>
      <use xlink:href="#DejaVuSans-6e" transform="translate(917.476562 0)"/>
      <use xlink:href="#DejaVuSans-74" transform="translate(980.855469 0)"/>
     </g>
     <!-- vs Sobol32 -->
     <g transform="translate(369.256531 109.51601) rotate(-90) scale(0.08 -0.08)">
      <use xlink:href="#DejaVuSans-76"/>
      <use xlink:href="#DejaVuSans-73" transform="translate(59.179688 0)"/>
      <use xlink:href="#DejaVuSans-20" transform="translate(111.279297 0)"/>
      <use xlink:href="#DejaVuSans-53" transform="translate(143.066406 0)"/>
      <use xlink:href="#DejaVuSans-6f" transform="translate(206.542969 0)"/>
      <use xlink:href="#DejaVuSans-62" transform="translate(267.724609 0)"/>
      <use xlink:href="#DejaVuSans-6f" transform="translate(331.201172 0)"/>
      <use xlink:href="#DejaVuSans-6c" transform="translate(392.382812 0)"/>
      <use xlink:href="#DejaVuSans-33" transform="translate(420.166016 0)"/>
      <use xlink:href="#DejaVuSans-32" transform="translate(483.789062 0)"/>
     </g>
    </g>
   </g>
   <g id="line2d_62">
    <path d="M 409.676141 80.950114 
L 524.284497 80.950114 
" clip-path="url(#p777d9954be)" style="fill: none; stroke-dasharray: 4.07,1.76; stroke-dashoffset: 0; stroke: #555555; stroke-width: 1.1"/>
   </g>
   <g id="line2d_63">
    <path d="M 422.900182 95.757206 
L 444.94025 94.579551 
L 466.980319 76.78724 
L 489.020388 80.452905 
L 511.060456 78.619787 
" clip-path="url(#p777d9954be)" style="fill: none; stroke: #0b7f7c; stroke-width: 1.6; stroke-linecap: square"/>
    <defs>
     <path id="m34b8f4d974" d="M 0 1.7 
C 0.450845 1.7 0.883286 1.520877 1.202082 1.202082 
C 1.520877 0.883286 1.7 0.450845 1.7 0 
C 1.7 -0.450845 1.520877 -0.883286 1.202082 -1.202082 
C 0.883286 -1.520877 0.450845 -1.7 0 -1.7 
C -0.450845 -1.7 -0.883286 -1.520877 -1.202082 -1.202082 
C -1.520877 -0.883286 -1.7 -0.450845 -1.7 0 
C -1.7 0.450845 -1.520877 0.883286 -1.202082 1.202082 
C -0.883286 1.520877 -0.450845 1.7 0 1.7 
z
" style="stroke: #0b7f7c"/>
    </defs>
    <g clip-path="url(#p777d9954be)">
     <use xlink:href="#m34b8f4d974" x="422.900182" y="95.757206" style="fill: #0b7f7c; stroke: #0b7f7c"/>
     <use xlink:href="#m34b8f4d974" x="444.94025" y="94.579551" style="fill: #0b7f7c; stroke: #0b7f7c"/>
     <use xlink:href="#m34b8f4d974" x="466.980319" y="76.78724" style="fill: #0b7f7c; stroke: #0b7f7c"/>
     <use xlink:href="#m34b8f4d974" x="489.020388" y="80.452905" style="fill: #0b7f7c; stroke: #0b7f7c"/>
     <use xlink:href="#m34b8f4d974" x="511.060456" y="78.619787" style="fill: #0b7f7c; stroke: #0b7f7c"/>
    </g>
   </g>
   <g id="patch_14">
    <path d="M 409.676141 155.198426 
L 409.676141 20.038594 
" style="fill: none; stroke: #000000; stroke-width: 0.8; stroke-linejoin: miter; stroke-linecap: square"/>
   </g>
   <g id="patch_15">
    <path d="M 409.676141 155.198426 
L 524.284497 155.198426 
" style="fill: none; stroke: #000000; stroke-width: 0.8; stroke-linejoin: miter; stroke-linecap: square"/>
   </g>
   <g id="text_48">
    <!-- c  Reduction after PPR -->
    <g transform="translate(417.090085 14.038594) scale(0.09 -0.09)">
     <use xlink:href="#DejaVuSans-63"/>
     <use xlink:href="#DejaVuSans-20" transform="translate(54.980469 0)"/>
     <use xlink:href="#DejaVuSans-20" transform="translate(86.767578 0)"/>
     <use xlink:href="#DejaVuSans-52" transform="translate(118.554688 0)"/>
     <use xlink:href="#DejaVuSans-65" transform="translate(183.537109 0)"/>
     <use xlink:href="#DejaVuSans-64" transform="translate(245.060547 0)"/>
     <use xlink:href="#DejaVuSans-75" transform="translate(308.537109 0)"/>
     <use xlink:href="#DejaVuSans-63" transform="translate(371.916016 0)"/>
     <use xlink:href="#DejaVuSans-74" transform="translate(426.896484 0)"/>
     <use xlink:href="#DejaVuSans-69" transform="translate(466.105469 0)"/>
     <use xlink:href="#DejaVuSans-6f" transform="translate(493.888672 0)"/>
     <use xlink:href="#DejaVuSans-6e" transform="translate(555.070312 0)"/>
     <use xlink:href="#DejaVuSans-20" transform="translate(618.449219 0)"/>
     <use xlink:href="#DejaVuSans-61" transform="translate(650.236328 0)"/>
     <use xlink:href="#DejaVuSans-66" transform="translate(711.515625 0)"/>
     <use xlink:href="#DejaVuSans-74" transform="translate(744.970703 0)"/>
     <use xlink:href="#DejaVuSans-65" transform="translate(784.179688 0)"/>
     <use xlink:href="#DejaVuSans-72" transform="translate(845.703125 0)"/>
     <use xlink:href="#DejaVuSans-20" transform="translate(886.816406 0)"/>
     <use xlink:href="#DejaVuSans-50" transform="translate(918.603516 0)"/>
     <use xlink:href="#DejaVuSans-50" transform="translate(978.90625 0)"/>
     <use xlink:href="#DejaVuSans-52" transform="translate(1039.208984 0)"/>
    </g>
   </g>
  </g>
  <g id="text_49">
   <!-- KUN proxy is evaluated on fixed LHS256 validation coordinates. The plot tests the cold-start design prior, not point-wise error calibration. -->
   <g style="fill: #555555" transform="translate(28.096557 200.318666) scale(0.07 -0.07)">
    <defs>
     <path id="DejaVuSans-78" d="M 3513 3500 
L 2247 1797 
L 3578 0 
L 2900 0 
L 1881 1375 
L 863 0 
L 184 0 
L 1544 1831 
L 300 3500 
L 978 3500 
L 1906 2253 
L 2834 3500 
L 3513 3500 
z
" transform="scale(0.015625)"/>
     <path id="DejaVuSans-4c" d="M 628 4666 
L 1259 4666 
L 1259 531 
L 3531 531 
L 3531 0 
L 628 0 
L 628 4666 
z
" transform="scale(0.015625)"/>
     <path id="DejaVuSans-48" d="M 628 4666 
L 1259 4666 
L 1259 2753 
L 3553 2753 
L 3553 4666 
L 4184 4666 
L 4184 0 
L 3553 0 
L 3553 2222 
L 1259 2222 
L 1259 0 
L 628 0 
L 628 4666 
z
" transform="scale(0.015625)"/>
     <path id="DejaVuSans-67" d="M 2906 1791 
Q 2906 2416 2648 2759 
Q 2391 3103 1925 3103 
Q 1463 3103 1205 2759 
Q 947 2416 947 1791 
Q 947 1169 1205 825 
Q 1463 481 1925 481 
Q 2391 481 2648 825 
Q 2906 1169 2906 1791 
z
M 3481 434 
Q 3481 -459 3084 -895 
Q 2688 -1331 1869 -1331 
Q 1566 -1331 1297 -1286 
Q 1028 -1241 775 -1147 
L 775 -588 
Q 1028 -725 1275 -790 
Q 1522 -856 1778 -856 
Q 2344 -856 2625 -561 
Q 2906 -266 2906 331 
L 2906 616 
Q 2728 306 2450 153 
Q 2172 0 1784 0 
Q 1141 0 747 490 
Q 353 981 353 1791 
Q 353 2603 747 3093 
Q 1141 3584 1784 3584 
Q 2172 3584 2450 3431 
Q 2728 3278 2906 2969 
L 2906 3500 
L 3481 3500 
L 3481 434 
z
" transform="scale(0.015625)"/>
     <path id="DejaVuSans-2c" d="M 750 794 
L 1409 794 
L 1409 256 
L 897 -744 
L 494 -744 
L 750 256 
L 750 794 
z
" transform="scale(0.015625)"/>
     <path id="DejaVuSans-77" d="M 269 3500 
L 844 3500 
L 1563 769 
L 2278 3500 
L 2956 3500 
L 3675 769 
L 4391 3500 
L 4966 3500 
L 4050 0 
L 3372 0 
L 2619 2869 
L 1863 0 
L 1184 0 
L 269 3500 
z
" transform="scale(0.015625)"/>
    </defs>
    <use xlink:href="#DejaVuSans-4b"/>
    <use xlink:href="#DejaVuSans-55" transform="translate(62.951172 0)"/>
    <use xlink:href="#DejaVuSans-4e" transform="translate(136.144531 0)"/>
    <use xlink:href="#DejaVuSans-20" transform="translate(210.949219 0)"/>
    <use xlink:href="#DejaVuSans-70" transform="translate(242.736328 0)"/>
    <use xlink:href="#DejaVuSans-72" transform="translate(306.212891 0)"/>
    <use xlink:href="#DejaVuSans-6f" transform="translate(345.076172 0)"/>
    <use xlink:href="#DejaVuSans-78" transform="translate(403.132812 0)"/>
    <use xlink:href="#DejaVuSans-79" transform="translate(462.3125 0)"/>
    <use xlink:href="#DejaVuSans-20" transform="translate(521.492188 0)"/>
    <use xlink:href="#DejaVuSans-69" transform="translate(553.279297 0)"/>
    <use xlink:href="#DejaVuSans-73" transform="translate(581.0625 0)"/>
    <use xlink:href="#DejaVuSans-20" transform="translate(633.162109 0)"/>
    <use xlink:href="#DejaVuSans-65" transform="translate(664.949219 0)"/>
    <use xlink:href="#DejaVuSans-76" transform="translate(726.472656 0)"/>
    <use xlink:href="#DejaVuSans-61" transform="translate(785.652344 0)"/>
    <use xlink:href="#DejaVuSans-6c" transform="translate(846.931641 0)"/>
    <use xlink:href="#DejaVuSans-75" transform="translate(874.714844 0)"/>
    <use xlink:href="#DejaVuSans-61" transform="translate(938.09375 0)"/>
    <use xlink:href="#DejaVuSans-74" transform="translate(999.373047 0)"/>
    <use xlink:href="#DejaVuSans-65" transform="translate(1038.582031 0)"/>
    <use xlink:href="#DejaVuSans-64" transform="translate(1100.105469 0)"/>
    <use xlink:href="#DejaVuSans-20" transform="translate(1163.582031 0)"/>
    <use xlink:href="#DejaVuSans-6f" transform="translate(1195.369141 0)"/>
    <use xlink:href="#DejaVuSans-6e" transform="translate(1256.550781 0)"/>
    <use xlink:href="#DejaVuSans-20" transform="translate(1319.929688 0)"/>
    <use xlink:href="#DejaVuSans-66" transform="translate(1351.716797 0)"/>
    <use xlink:href="#DejaVuSans-69" transform="translate(1386.921875 0)"/>
    <use xlink:href="#DejaVuSans-78" transform="translate(1414.705078 0)"/>
    <use xlink:href="#DejaVuSans-65" transform="translate(1470.759766 0)"/>
    <use xlink:href="#DejaVuSans-64" transform="translate(1532.283203 0)"/>
    <use xlink:href="#DejaVuSans-20" transform="translate(1595.759766 0)"/>
    <use xlink:href="#DejaVuSans-4c" transform="translate(1627.546875 0)"/>
    <use xlink:href="#DejaVuSans-48" transform="translate(1683.259766 0)"/>
    <use xlink:href="#DejaVuSans-53" transform="translate(1758.455078 0)"/>
    <use xlink:href="#DejaVuSans-32" transform="translate(1821.931641 0)"/>
    <use xlink:href="#DejaVuSans-35" transform="translate(1885.554688 0)"/>
    <use xlink:href="#DejaVuSans-36" transform="translate(1949.177734 0)"/>
    <use xlink:href="#DejaVuSans-20" transform="translate(2012.800781 0)"/>
    <use xlink:href="#DejaVuSans-76" transform="translate(2044.587891 0)"/>
    <use xlink:href="#DejaVuSans-61" transform="translate(2103.767578 0)"/>
    <use xlink:href="#DejaVuSans-6c" transform="translate(2165.046875 0)"/>
    <use xlink:href="#DejaVuSans-69" transform="translate(2192.830078 0)"/>
    <use xlink:href="#DejaVuSans-64" transform="translate(2220.613281 0)"/>
    <use xlink:href="#DejaVuSans-61" transform="translate(2284.089844 0)"/>
    <use xlink:href="#DejaVuSans-74" transform="translate(2345.369141 0)"/>
    <use xlink:href="#DejaVuSans-69" transform="translate(2384.578125 0)"/>
    <use xlink:href="#DejaVuSans-6f" transform="translate(2412.361328 0)"/>
    <use xlink:href="#DejaVuSans-6e" transform="translate(2473.542969 0)"/>
    <use xlink:href="#DejaVuSans-20" transform="translate(2536.921875 0)"/>
    <use xlink:href="#DejaVuSans-63" transform="translate(2568.708984 0)"/>
    <use xlink:href="#DejaVuSans-6f" transform="translate(2623.689453 0)"/>
    <use xlink:href="#DejaVuSans-6f" transform="translate(2684.871094 0)"/>
    <use xlink:href="#DejaVuSans-72" transform="translate(2746.052734 0)"/>
    <use xlink:href="#DejaVuSans-64" transform="translate(2785.416016 0)"/>
    <use xlink:href="#DejaVuSans-69" transform="translate(2848.892578 0)"/>
    <use xlink:href="#DejaVuSans-6e" transform="translate(2876.675781 0)"/>
    <use xlink:href="#DejaVuSans-61" transform="translate(2940.054688 0)"/>
    <use xlink:href="#DejaVuSans-74" transform="translate(3001.333984 0)"/>
    <use xlink:href="#DejaVuSans-65" transform="translate(3040.542969 0)"/>
    <use xlink:href="#DejaVuSans-73" transform="translate(3102.066406 0)"/>
    <use xlink:href="#DejaVuSans-2e" transform="translate(3154.166016 0)"/>
    <use xlink:href="#DejaVuSans-20" transform="translate(3185.953125 0)"/>
    <use xlink:href="#DejaVuSans-54" transform="translate(3217.740234 0)"/>
    <use xlink:href="#DejaVuSans-68" transform="translate(3278.824219 0)"/>
    <use xlink:href="#DejaVuSans-65" transform="translate(3342.203125 0)"/>
    <use xlink:href="#DejaVuSans-20" transform="translate(3403.726562 0)"/>
    <use xlink:href="#DejaVuSans-70" transform="translate(3435.513672 0)"/>
    <use xlink:href="#DejaVuSans-6c" transform="translate(3498.990234 0)"/>
    <use xlink:href="#DejaVuSans-6f" transform="translate(3526.773438 0)"/>
    <use xlink:href="#DejaVuSans-74" transform="translate(3587.955078 0)"/>
    <use xlink:href="#DejaVuSans-20" transform="translate(3627.164062 0)"/>
    <use xlink:href="#DejaVuSans-74" transform="translate(3658.951172 0)"/>
    <use xlink:href="#DejaVuSans-65" transform="translate(3698.160156 0)"/>
    <use xlink:href="#DejaVuSans-73" transform="translate(3759.683594 0)"/>
    <use xlink:href="#DejaVuSans-74" transform="translate(3811.783203 0)"/>
    <use xlink:href="#DejaVuSans-73" transform="translate(3850.992188 0)"/>
    <use xlink:href="#DejaVuSans-20" transform="translate(3903.091797 0)"/>
    <use xlink:href="#DejaVuSans-74" transform="translate(3934.878906 0)"/>
    <use xlink:href="#DejaVuSans-68" transform="translate(3974.087891 0)"/>
    <use xlink:href="#DejaVuSans-65" transform="translate(4037.466797 0)"/>
    <use xlink:href="#DejaVuSans-20" transform="translate(4098.990234 0)"/>
    <use xlink:href="#DejaVuSans-63" transform="translate(4130.777344 0)"/>
    <use xlink:href="#DejaVuSans-6f" transform="translate(4185.757812 0)"/>
    <use xlink:href="#DejaVuSans-6c" transform="translate(4246.939453 0)"/>
    <use xlink:href="#DejaVuSans-64" transform="translate(4274.722656 0)"/>
    <use xlink:href="#DejaVuSans-2d" transform="translate(4338.199219 0)"/>
    <use xlink:href="#DejaVuSans-73" transform="translate(4374.283203 0)"/>
    <use xlink:href="#DejaVuSans-74" transform="translate(4426.382812 0)"/>
    <use xlink:href="#DejaVuSans-61" transform="translate(4465.591797 0)"/>
    <use xlink:href="#DejaVuSans-72" transform="translate(4526.871094 0)"/>
    <use xlink:href="#DejaVuSans-74" transform="translate(4567.984375 0)"/>
    <use xlink:href="#DejaVuSans-20" transform="translate(4607.193359 0)"/>
    <use xlink:href="#DejaVuSans-64" transform="translate(4638.980469 0)"/>
    <use xlink:href="#DejaVuSans-65" transform="translate(4702.457031 0)"/>
    <use xlink:href="#DejaVuSans-73" transform="translate(4763.980469 0)"/>
    <use xlink:href="#DejaVuSans-69" transform="translate(4816.080078 0)"/>
    <use xlink:href="#DejaVuSans-67" transform="translate(4843.863281 0)"/>
    <use xlink:href="#DejaVuSans-6e" transform="translate(4907.339844 0)"/>
    <use xlink:href="#DejaVuSans-20" transform="translate(4970.71875 0)"/>
    <use xlink:href="#DejaVuSans-70" transform="translate(5002.505859 0)"/>
    <use xlink:href="#DejaVuSans-72" transform="translate(5065.982422 0)"/>
    <use xlink:href="#DejaVuSans-69" transform="translate(5107.095703 0)"/>
    <use xlink:href="#DejaVuSans-6f" transform="translate(5134.878906 0)"/>
    <use xlink:href="#DejaVuSans-72" transform="translate(5196.060547 0)"/>
    <use xlink:href="#DejaVuSans-2c" transform="translate(5237.173828 0)"/>
    <use xlink:href="#DejaVuSans-20" transform="translate(5268.960938 0)"/>
    <use xlink:href="#DejaVuSans-6e" transform="translate(5300.748047 0)"/>
    <use xlink:href="#DejaVuSans-6f" transform="translate(5364.126953 0)"/>
    <use xlink:href="#DejaVuSans-74" transform="translate(5425.308594 0)"/>
    <use xlink:href="#DejaVuSans-20" transform="translate(5464.517578 0)"/>
    <use xlink:href="#DejaVuSans-70" transform="translate(5496.304688 0)"/>
    <use xlink:href="#DejaVuSans-6f" transform="translate(5559.78125 0)"/>
    <use xlink:href="#DejaVuSans-69" transform="translate(5620.962891 0)"/>
    <use xlink:href="#DejaVuSans-6e" transform="translate(5648.746094 0)"/>
    <use xlink:href="#DejaVuSans-74" transform="translate(5712.125 0)"/>
    <use xlink:href="#DejaVuSans-2d" transform="translate(5751.333984 0)"/>
    <use xlink:href="#DejaVuSans-77" transform="translate(5787.417969 0)"/>
    <use xlink:href="#DejaVuSans-69" transform="translate(5869.205078 0)"/>
    <use xlink:href="#DejaVuSans-73" transform="translate(5896.988281 0)"/>
    <use xlink:href="#DejaVuSans-65" transform="translate(5949.087891 0)"/>
    <use xlink:href="#DejaVuSans-20" transform="translate(6010.611328 0)"/>
    <use xlink:href="#DejaVuSans-65" transform="translate(6042.398438 0)"/>
    <use xlink:href="#DejaVuSans-72" transform="translate(6103.921875 0)"/>
    <use xlink:href="#DejaVuSans-72" transform="translate(6143.285156 0)"/>
    <use xlink:href="#DejaVuSans-6f" transform="translate(6182.148438 0)"/>
    <use xlink:href="#DejaVuSans-72" transform="translate(6243.330078 0)"/>
    <use xlink:href="#DejaVuSans-20" transform="translate(6284.443359 0)"/>
    <use xlink:href="#DejaVuSans-63" transform="translate(6316.230469 0)"/>
    <use xlink:href="#DejaVuSans-61" transform="translate(6371.210938 0)"/>
    <use xlink:href="#DejaVuSans-6c" transform="translate(6432.490234 0)"/>
    <use xlink:href="#DejaVuSans-69" transform="translate(6460.273438 0)"/>
    <use xlink:href="#DejaVuSans-62" transform="translate(6488.056641 0)"/>
    <use xlink:href="#DejaVuSans-72" transform="translate(6551.533203 0)"/>
    <use xlink:href="#DejaVuSans-61" transform="translate(6592.646484 0)"/>
    <use xlink:href="#DejaVuSans-74" transform="translate(6653.925781 0)"/>
    <use xlink:href="#DejaVuSans-69" transform="translate(6693.134766 0)"/>
    <use xlink:href="#DejaVuSans-6f" transform="translate(6720.917969 0)"/>
    <use xlink:href="#DejaVuSans-6e" transform="translate(6782.099609 0)"/>
    <use xlink:href="#DejaVuSans-2e" transform="translate(6845.478516 0)"/>
   </g>
  </g>
 </g>
 <defs>
  <clipPath id="p41531e6ac6">
   <rect x="56.371844" y="20.038594" width="114.608357" height="135.159832"/>
  </clipPath>
  <clipPath id="p961fdf91fd">
   <rect x="227.495672" y="20.038594" width="114.608357" height="135.159832"/>
  </clipPath>
  <clipPath id="p777d9954be">
   <rect x="409.676141" y="20.038594" width="114.608357" height="135.159832"/>
  </clipPath>
 </defs>
</svg>
